M48
; DRILL file {KiCad 7.0.10} date Fri Sep 19 15:10:44 2025
; FORMAT={-:-/ absolute / inch / decimal}
; #@! TF.CreationDate,2025-09-19T15:10:44-04:00
; #@! TF.GenerationSoftware,Kicad,Pcbnew,7.0.10
; #@! TF.FileFunction,MixedPlating,1,2
FMAT,2
INCH
; #@! TA.AperFunction,Plated,PTH,ComponentDrill
T1C0.0394
%
G90
G05
T1
X1.4059Y-3.2047
X1.5059Y-3.2047
X1.6059Y-3.2047
X1.6555Y-2.8173
X1.6555Y-2.9173
X1.6555Y-3.0173
X3.1012Y-2.298
X3.1012Y-2.398
X3.1012Y-2.498
X3.1012Y-2.598
X3.1012Y-2.698
X3.1012Y-2.798
X3.1012Y-2.898
X3.1012Y-2.998
X3.1012Y-3.098
X3.1012Y-3.198
X3.1012Y-3.298
X3.1012Y-3.398
X3.1012Y-3.498
X3.1012Y-3.598
X3.1012Y-3.698
X3.1012Y-3.798
X3.2012Y-2.298
X3.2012Y-2.398
X3.2012Y-2.498
X3.2012Y-2.598
X3.2012Y-2.698
X3.2012Y-2.798
X3.2012Y-2.898
X3.2012Y-2.998
X3.2012Y-3.098
X3.2012Y-3.198
X3.2012Y-3.298
X3.2012Y-3.398
X3.2012Y-3.498
X3.2012Y-3.598
X3.2012Y-3.698
X3.2012Y-3.798
M30
