%TF.GenerationSoftware,KiCad,Pcbnew,7.0.10*%
%TF.CreationDate,2025-09-19T15:10:35-04:00*%
%TF.ProjectId,dds-sweeper-board,6464732d-7377-4656-9570-65722d626f61,0*%
%TF.SameCoordinates,Original*%
%TF.FileFunction,Copper,L1,Top*%
%TF.FilePolarity,Positive*%
%FSLAX46Y46*%
G04 Gerber Fmt 4.6, Leading zero omitted, Abs format (unit mm)*
G04 Created by KiCad (PCBNEW 7.0.10) date 2025-09-19 15:10:35*
%MOMM*%
%LPD*%
G01*
G04 APERTURE LIST*
G04 Aperture macros list*
%AMRoundRect*
0 Rectangle with rounded corners*
0 $1 Rounding radius*
0 $2 $3 $4 $5 $6 $7 $8 $9 X,Y pos of 4 corners*
0 Add a 4 corners polygon primitive as box body*
4,1,4,$2,$3,$4,$5,$6,$7,$8,$9,$2,$3,0*
0 Add four circle primitives for the rounded corners*
1,1,$1+$1,$2,$3*
1,1,$1+$1,$4,$5*
1,1,$1+$1,$6,$7*
1,1,$1+$1,$8,$9*
0 Add four rect primitives between the rounded corners*
20,1,$1+$1,$2,$3,$4,$5,0*
20,1,$1+$1,$4,$5,$6,$7,0*
20,1,$1+$1,$6,$7,$8,$9,0*
20,1,$1+$1,$8,$9,$2,$3,0*%
G04 Aperture macros list end*
%TA.AperFunction,SMDPad,CuDef*%
%ADD10RoundRect,0.250000X-0.337500X-0.475000X0.337500X-0.475000X0.337500X0.475000X-0.337500X0.475000X0*%
%TD*%
%TA.AperFunction,SMDPad,CuDef*%
%ADD11RoundRect,0.250000X0.337500X0.475000X-0.337500X0.475000X-0.337500X-0.475000X0.337500X-0.475000X0*%
%TD*%
%TA.AperFunction,SMDPad,CuDef*%
%ADD12R,3.600000X1.270000*%
%TD*%
%TA.AperFunction,SMDPad,CuDef*%
%ADD13R,4.200000X1.350000*%
%TD*%
%TA.AperFunction,ComponentPad*%
%ADD14R,1.700000X1.700000*%
%TD*%
%TA.AperFunction,ComponentPad*%
%ADD15O,1.700000X1.700000*%
%TD*%
%TA.AperFunction,SMDPad,CuDef*%
%ADD16RoundRect,0.150000X0.512500X0.150000X-0.512500X0.150000X-0.512500X-0.150000X0.512500X-0.150000X0*%
%TD*%
%TA.AperFunction,SMDPad,CuDef*%
%ADD17RoundRect,0.150000X-0.468458X0.256326X0.256326X-0.468458X0.468458X-0.256326X-0.256326X0.468458X0*%
%TD*%
%TA.AperFunction,SMDPad,CuDef*%
%ADD18R,3.500000X1.700000*%
%TD*%
%TA.AperFunction,SMDPad,CuDef*%
%ADD19R,0.001000X0.001000*%
%TD*%
%TA.AperFunction,SMDPad,CuDef*%
%ADD20R,1.700000X3.500000*%
%TD*%
%TA.AperFunction,SMDPad,CuDef*%
%ADD21RoundRect,0.250000X-0.625000X0.400000X-0.625000X-0.400000X0.625000X-0.400000X0.625000X0.400000X0*%
%TD*%
%TA.AperFunction,SMDPad,CuDef*%
%ADD22RoundRect,0.250000X-0.400000X-0.625000X0.400000X-0.625000X0.400000X0.625000X-0.400000X0.625000X0*%
%TD*%
%TA.AperFunction,Conductor*%
%ADD23C,0.400000*%
%TD*%
%TA.AperFunction,Conductor*%
%ADD24C,0.600000*%
%TD*%
G04 APERTURE END LIST*
D10*
X47490000Y-40470000D03*
X49565000Y-40470000D03*
D11*
X36730000Y-85740000D03*
X34655000Y-85740000D03*
D12*
X33890000Y-94555000D03*
D13*
X34090000Y-91730000D03*
X34090000Y-97380000D03*
D14*
X35710000Y-81400000D03*
D15*
X38250000Y-81400000D03*
X40790000Y-81400000D03*
D16*
X43027500Y-94570000D03*
X43027500Y-93620000D03*
X43027500Y-92670000D03*
X40752500Y-92670000D03*
X40752500Y-94570000D03*
D10*
X47492500Y-42490000D03*
X49567500Y-42490000D03*
D17*
X43097417Y-40863915D03*
X42425666Y-41535666D03*
X41753915Y-42207417D03*
X43362583Y-43816085D03*
X44706085Y-42472583D03*
D12*
X33940000Y-37740000D03*
D13*
X34140000Y-34915000D03*
X34140000Y-40565000D03*
D10*
X40955000Y-86760000D03*
X43030000Y-86760000D03*
D12*
X33890000Y-63885000D03*
D13*
X34090000Y-61060000D03*
X34090000Y-66710000D03*
D18*
X67340000Y-96930000D03*
X67340000Y-94390000D03*
X67340000Y-91850000D03*
X67340000Y-89310000D03*
X67340000Y-86770000D03*
X67340000Y-84230000D03*
X67340000Y-81690000D03*
X67340000Y-79150000D03*
X67340000Y-76610000D03*
X67340000Y-74070000D03*
X67340000Y-71530000D03*
X67340000Y-68990000D03*
X67340000Y-66450000D03*
X67340000Y-63910000D03*
X67340000Y-61370000D03*
X67340000Y-58830000D03*
X67340000Y-56290000D03*
X67340000Y-53750000D03*
X67340000Y-51210000D03*
X67340000Y-48670000D03*
X47760000Y-48670000D03*
X47760000Y-51210000D03*
X47760000Y-53750000D03*
X47760000Y-56290000D03*
X47760000Y-58830000D03*
X47760000Y-61370000D03*
X47760000Y-63910000D03*
X47760000Y-66450000D03*
X47760000Y-68990000D03*
X47760000Y-71530000D03*
X47760000Y-74070000D03*
X47760000Y-76610000D03*
D19*
X47760000Y-79150000D03*
D18*
X47760000Y-79150000D03*
X47760000Y-81690000D03*
X47760000Y-84230000D03*
X47760000Y-86770000D03*
X47760000Y-89310000D03*
X47760000Y-91850000D03*
X47760000Y-94390000D03*
X47760000Y-96930000D03*
D20*
X60090000Y-48000000D03*
X57550000Y-48000000D03*
X55010000Y-48000000D03*
D21*
X39250000Y-62380000D03*
X39250000Y-65480000D03*
D10*
X40952500Y-97310000D03*
X43027500Y-97310000D03*
D22*
X37720000Y-53720000D03*
X40820000Y-53720000D03*
D14*
X81310000Y-58370000D03*
D15*
X78770000Y-58370000D03*
X81310000Y-60910000D03*
X78770000Y-60910000D03*
X81310000Y-63450000D03*
X78770000Y-63450000D03*
X81310000Y-65990000D03*
X78770000Y-65990000D03*
X81310000Y-68530000D03*
X78770000Y-68530000D03*
X81310000Y-71070000D03*
X78770000Y-71070000D03*
X81310000Y-73610000D03*
X78770000Y-73610000D03*
X81310000Y-76150000D03*
X78770000Y-76150000D03*
X81310000Y-78690000D03*
X78770000Y-78690000D03*
X81310000Y-81230000D03*
X78770000Y-81230000D03*
X81310000Y-83770000D03*
X78770000Y-83770000D03*
X81310000Y-86310000D03*
X78770000Y-86310000D03*
X81310000Y-88850000D03*
X78770000Y-88850000D03*
X81310000Y-91390000D03*
X78770000Y-91390000D03*
X81310000Y-93930000D03*
X78770000Y-93930000D03*
X81310000Y-96470000D03*
X78770000Y-96470000D03*
D11*
X36730000Y-88220000D03*
X34655000Y-88220000D03*
D14*
X42050000Y-71560000D03*
D15*
X42050000Y-74100000D03*
X42050000Y-76640000D03*
D23*
X33890000Y-63885000D02*
X48635000Y-63885000D01*
X48635000Y-63885000D02*
X48660000Y-63910000D01*
X63250000Y-46960000D02*
X64700000Y-45510000D01*
X54410000Y-58830000D02*
X63250000Y-49990000D01*
X78770000Y-53620000D02*
X70660000Y-45510000D01*
X48660000Y-58830000D02*
X54410000Y-58830000D01*
X64700000Y-45510000D02*
X70660000Y-45510000D01*
X78770000Y-58370000D02*
X78770000Y-53620000D01*
X63250000Y-49990000D02*
X63250000Y-46960000D01*
X76370000Y-63240000D02*
X71960000Y-58830000D01*
X78770000Y-68530000D02*
X77640000Y-68530000D01*
X77640000Y-68530000D02*
X76370000Y-67260000D01*
X76370000Y-67260000D02*
X76370000Y-63240000D01*
X71960000Y-58830000D02*
X66440000Y-58830000D01*
X70780000Y-61370000D02*
X66440000Y-61370000D01*
X74250000Y-67610000D02*
X74250000Y-64840000D01*
X78770000Y-71070000D02*
X77710000Y-71070000D01*
X77710000Y-71070000D02*
X74250000Y-67610000D01*
X74250000Y-64840000D02*
X70780000Y-61370000D01*
X78770000Y-73610000D02*
X77480000Y-73610000D01*
X77480000Y-73610000D02*
X72080000Y-68210000D01*
X69530000Y-63910000D02*
X66440000Y-63910000D01*
X72080000Y-68210000D02*
X72080000Y-66460000D01*
X72080000Y-66460000D02*
X69530000Y-63910000D01*
X69760000Y-68990000D02*
X66440000Y-68990000D01*
X76920000Y-76150000D02*
X69760000Y-68990000D01*
X78770000Y-76150000D02*
X76920000Y-76150000D01*
X69760000Y-71530000D02*
X66440000Y-71530000D01*
X76920000Y-78690000D02*
X69760000Y-71530000D01*
X78770000Y-78690000D02*
X76920000Y-78690000D01*
X69960000Y-76610000D02*
X66440000Y-76610000D01*
X78770000Y-83770000D02*
X77120000Y-83770000D01*
X77120000Y-83770000D02*
X69960000Y-76610000D01*
X73140000Y-84230000D02*
X75220000Y-86310000D01*
X75220000Y-86310000D02*
X78770000Y-86310000D01*
X66440000Y-84230000D02*
X73140000Y-84230000D01*
X71700000Y-86770000D02*
X76320000Y-91390000D01*
X66440000Y-86770000D02*
X71700000Y-86770000D01*
X76320000Y-91390000D02*
X78770000Y-91390000D01*
X66440000Y-96930000D02*
X73200000Y-96930000D01*
X73200000Y-96930000D02*
X76200000Y-93930000D01*
X76200000Y-93930000D02*
X78770000Y-93930000D01*
X43376085Y-43816085D02*
X48230000Y-48670000D01*
X48230000Y-48670000D02*
X48660000Y-48670000D01*
X43362583Y-43816085D02*
X43376085Y-43816085D01*
D24*
X40732500Y-94570000D02*
X38330000Y-94570000D01*
X36617500Y-88107500D02*
X36730000Y-88220000D01*
X36730000Y-84340000D02*
X35710000Y-83320000D01*
X38330000Y-90040000D02*
X38330000Y-94570000D01*
X36730000Y-88220000D02*
X36730000Y-88440000D01*
X36730000Y-88220000D02*
X36730000Y-85740000D01*
X36730000Y-88440000D02*
X38330000Y-90040000D01*
X38330000Y-94570000D02*
X34405000Y-94570000D01*
X35710000Y-83320000D02*
X35710000Y-81400000D01*
X36730000Y-85740000D02*
X36730000Y-84340000D01*
X34405000Y-94570000D02*
X34390000Y-94555000D01*
D23*
X40790000Y-81400000D02*
X43010000Y-83620000D01*
X43010000Y-92632500D02*
X43027500Y-92650000D01*
X40790000Y-81400000D02*
X39240000Y-79850000D01*
X48660000Y-86770000D02*
X48650000Y-86760000D01*
X39250000Y-67472500D02*
X39240000Y-67482500D01*
X39240000Y-79850000D02*
X39240000Y-67482500D01*
X40840000Y-81350000D02*
X40790000Y-81400000D01*
X39250000Y-65480000D02*
X39250000Y-67472500D01*
X43010000Y-83620000D02*
X43010000Y-92632500D01*
X48650000Y-86760000D02*
X43030000Y-86760000D01*
D24*
X43027500Y-94570000D02*
X43027500Y-97000000D01*
X46390000Y-96930000D02*
X48660000Y-96930000D01*
X43027500Y-97000000D02*
X43017500Y-97010000D01*
X44030000Y-94570000D02*
X46390000Y-96930000D01*
X43027500Y-94570000D02*
X44030000Y-94570000D01*
D23*
X39250000Y-62380000D02*
X39250000Y-46330000D01*
X47712500Y-42480000D02*
X44713502Y-42480000D01*
X47492500Y-42490000D02*
X47492500Y-40472500D01*
X39250000Y-46330000D02*
X43107417Y-42472583D01*
X47492500Y-40472500D02*
X47490000Y-40470000D01*
X43107417Y-42472583D02*
X44706085Y-42472583D01*
X44713502Y-42480000D02*
X44706085Y-42472583D01*
X42425666Y-41535666D02*
X38630000Y-37740000D01*
X38630000Y-37740000D02*
X34150000Y-37740000D01*
X48650000Y-71520000D02*
X42090000Y-71520000D01*
X48660000Y-71530000D02*
X48650000Y-71520000D01*
X42090000Y-71520000D02*
X42050000Y-71560000D01*
%TA.AperFunction,Conductor*%
G36*
X42304000Y-76206325D02*
G01*
X42192315Y-76155320D01*
X42085763Y-76140000D01*
X42014237Y-76140000D01*
X41907685Y-76155320D01*
X41796000Y-76206325D01*
X41796000Y-74533674D01*
X41907685Y-74584680D01*
X42014237Y-74600000D01*
X42085763Y-74600000D01*
X42192315Y-74584680D01*
X42304000Y-74533674D01*
X42304000Y-76206325D01*
G37*
%TD.AperFunction*%
%TA.AperFunction,Conductor*%
G36*
X84873789Y-34049691D02*
G01*
X84941861Y-34069847D01*
X84988232Y-34123607D01*
X84999500Y-34175690D01*
X84999500Y-98873500D01*
X84979498Y-98941621D01*
X84925842Y-98988114D01*
X84873500Y-98999500D01*
X32126500Y-98999500D01*
X32058379Y-98979498D01*
X32011886Y-98925842D01*
X32000500Y-98873500D01*
X32000500Y-98689000D01*
X32020502Y-98620879D01*
X32074158Y-98574386D01*
X32126500Y-98563000D01*
X33836000Y-98563000D01*
X33836000Y-97634000D01*
X34344000Y-97634000D01*
X34344000Y-98563000D01*
X36238585Y-98563000D01*
X36238597Y-98562999D01*
X36299093Y-98556494D01*
X36435964Y-98505444D01*
X36435965Y-98505444D01*
X36552904Y-98417904D01*
X36640444Y-98300965D01*
X36640444Y-98300964D01*
X36691494Y-98164093D01*
X36697999Y-98103597D01*
X36698000Y-98103585D01*
X36698000Y-97634000D01*
X34344000Y-97634000D01*
X33836000Y-97634000D01*
X33836000Y-97564000D01*
X39857000Y-97564000D01*
X39857000Y-97835516D01*
X39867605Y-97939318D01*
X39867606Y-97939321D01*
X39923342Y-98107525D01*
X40016365Y-98258339D01*
X40016370Y-98258345D01*
X40141654Y-98383629D01*
X40141660Y-98383634D01*
X40292474Y-98476657D01*
X40460678Y-98532393D01*
X40460681Y-98532394D01*
X40564483Y-98542999D01*
X40564483Y-98543000D01*
X40698500Y-98543000D01*
X40698500Y-97564000D01*
X39857000Y-97564000D01*
X33836000Y-97564000D01*
X33836000Y-96197000D01*
X34344000Y-96197000D01*
X34344000Y-97126000D01*
X36698000Y-97126000D01*
X36698000Y-97056000D01*
X39857000Y-97056000D01*
X40698500Y-97056000D01*
X40698500Y-96077000D01*
X40564483Y-96077000D01*
X40460681Y-96087605D01*
X40460678Y-96087606D01*
X40292474Y-96143342D01*
X40141660Y-96236365D01*
X40141654Y-96236370D01*
X40016370Y-96361654D01*
X40016365Y-96361660D01*
X39923342Y-96512474D01*
X39867606Y-96680678D01*
X39867605Y-96680681D01*
X39857000Y-96784483D01*
X39857000Y-97056000D01*
X36698000Y-97056000D01*
X36698000Y-96656414D01*
X36697999Y-96656402D01*
X36691494Y-96595906D01*
X36640444Y-96459035D01*
X36640444Y-96459034D01*
X36552904Y-96342095D01*
X36435965Y-96254555D01*
X36299093Y-96203505D01*
X36238597Y-96197000D01*
X34344000Y-96197000D01*
X33836000Y-96197000D01*
X32126500Y-96197000D01*
X32058379Y-96176998D01*
X32011886Y-96123342D01*
X32000500Y-96071000D01*
X32000500Y-95824500D01*
X32020502Y-95756379D01*
X32074158Y-95709886D01*
X32126500Y-95698500D01*
X35738632Y-95698500D01*
X35738638Y-95698500D01*
X35738645Y-95698499D01*
X35738649Y-95698499D01*
X35799196Y-95691990D01*
X35799199Y-95691989D01*
X35799201Y-95691989D01*
X35936204Y-95640889D01*
X35946683Y-95633045D01*
X36053261Y-95553261D01*
X36117767Y-95467091D01*
X36140889Y-95436204D01*
X36140889Y-95436202D01*
X36146288Y-95428991D01*
X36203123Y-95386444D01*
X36247156Y-95378500D01*
X38277516Y-95378500D01*
X38291623Y-95379292D01*
X38330000Y-95383616D01*
X38368377Y-95379292D01*
X38382484Y-95378500D01*
X41331511Y-95378500D01*
X41331511Y-95378499D01*
X41368831Y-95375562D01*
X41528601Y-95329145D01*
X41528603Y-95329143D01*
X41528605Y-95329143D01*
X41644164Y-95260801D01*
X41671807Y-95244453D01*
X41789453Y-95126807D01*
X41789455Y-95126803D01*
X41790439Y-95125536D01*
X41791468Y-95124792D01*
X41795059Y-95121202D01*
X41795638Y-95121781D01*
X41847994Y-95083968D01*
X41918886Y-95080116D01*
X41980607Y-95115202D01*
X41989561Y-95125536D01*
X41990549Y-95126810D01*
X42108187Y-95244448D01*
X42108190Y-95244450D01*
X42108193Y-95244453D01*
X42135838Y-95260802D01*
X42157140Y-95273400D01*
X42205592Y-95325293D01*
X42219000Y-95381853D01*
X42219000Y-96181127D01*
X42198998Y-96249248D01*
X42182095Y-96270222D01*
X42090971Y-96361345D01*
X42088511Y-96364457D01*
X42086281Y-96366035D01*
X42085780Y-96366537D01*
X42085694Y-96366451D01*
X42030568Y-96405483D01*
X41959643Y-96408671D01*
X41898254Y-96373008D01*
X41890837Y-96364446D01*
X41888632Y-96361657D01*
X41763345Y-96236370D01*
X41763339Y-96236365D01*
X41612525Y-96143342D01*
X41444321Y-96087606D01*
X41444318Y-96087605D01*
X41340516Y-96077000D01*
X41206500Y-96077000D01*
X41206500Y-98543000D01*
X41340517Y-98543000D01*
X41340516Y-98542999D01*
X41444318Y-98532394D01*
X41444321Y-98532393D01*
X41612525Y-98476657D01*
X41763339Y-98383634D01*
X41763345Y-98383629D01*
X41888624Y-98258350D01*
X41890832Y-98255558D01*
X41892837Y-98254137D01*
X41893825Y-98253150D01*
X41893993Y-98253318D01*
X41948768Y-98214522D01*
X42019693Y-98211323D01*
X42081088Y-98246976D01*
X42088515Y-98255547D01*
X42090974Y-98258657D01*
X42216341Y-98384024D01*
X42216347Y-98384029D01*
X42216348Y-98384030D01*
X42367262Y-98477115D01*
X42535574Y-98532887D01*
X42639455Y-98543500D01*
X43415544Y-98543499D01*
X43519426Y-98532887D01*
X43687738Y-98477115D01*
X43838652Y-98384030D01*
X43964030Y-98258652D01*
X44057115Y-98107738D01*
X44112887Y-97939426D01*
X44123500Y-97835545D01*
X44123499Y-96784456D01*
X44112887Y-96680574D01*
X44057115Y-96512262D01*
X43964030Y-96361348D01*
X43964027Y-96361345D01*
X43964024Y-96361341D01*
X43872905Y-96270222D01*
X43838879Y-96207910D01*
X43836000Y-96181127D01*
X43836000Y-95823582D01*
X43856002Y-95755461D01*
X43909658Y-95708968D01*
X43979932Y-95698864D01*
X44044512Y-95728358D01*
X44051095Y-95734487D01*
X45464595Y-97147987D01*
X45498621Y-97210299D01*
X45501500Y-97237082D01*
X45501500Y-97828649D01*
X45508009Y-97889196D01*
X45508011Y-97889204D01*
X45559110Y-98026202D01*
X45559112Y-98026207D01*
X45646738Y-98143261D01*
X45763792Y-98230887D01*
X45763794Y-98230888D01*
X45763796Y-98230889D01*
X45822875Y-98252924D01*
X45900795Y-98281988D01*
X45900803Y-98281990D01*
X45961350Y-98288499D01*
X45961355Y-98288499D01*
X45961362Y-98288500D01*
X45961368Y-98288500D01*
X49558632Y-98288500D01*
X49558638Y-98288500D01*
X49558645Y-98288499D01*
X49558649Y-98288499D01*
X49619196Y-98281990D01*
X49619199Y-98281989D01*
X49619201Y-98281989D01*
X49756204Y-98230889D01*
X49873261Y-98143261D01*
X49960889Y-98026204D01*
X50011989Y-97889201D01*
X50017758Y-97835545D01*
X50018499Y-97828649D01*
X50018500Y-97828632D01*
X50018500Y-96031367D01*
X50018499Y-96031350D01*
X50011990Y-95970803D01*
X50011988Y-95970795D01*
X49960889Y-95833797D01*
X49960889Y-95833796D01*
X49931686Y-95794786D01*
X49887311Y-95735507D01*
X49862501Y-95668989D01*
X49877592Y-95599615D01*
X49887306Y-95584497D01*
X49960889Y-95486204D01*
X50011989Y-95349201D01*
X50014146Y-95329145D01*
X50018499Y-95288649D01*
X50018500Y-95288632D01*
X50018500Y-93491367D01*
X50018499Y-93491350D01*
X50011990Y-93430803D01*
X50011988Y-93430795D01*
X49977317Y-93337842D01*
X49960889Y-93293796D01*
X49960888Y-93293794D01*
X49960887Y-93293792D01*
X49887000Y-93195091D01*
X49862189Y-93128571D01*
X49877280Y-93059197D01*
X49887001Y-93044072D01*
X49960443Y-92945966D01*
X49960444Y-92945964D01*
X50011494Y-92809093D01*
X50017999Y-92748597D01*
X50018000Y-92748585D01*
X50018000Y-92104000D01*
X45502000Y-92104000D01*
X45502000Y-92748597D01*
X45508505Y-92809093D01*
X45559555Y-92945964D01*
X45559556Y-92945966D01*
X45632999Y-93044072D01*
X45657811Y-93110592D01*
X45642720Y-93179966D01*
X45633000Y-93195091D01*
X45559112Y-93293792D01*
X45559110Y-93293797D01*
X45508011Y-93430795D01*
X45508009Y-93430803D01*
X45501500Y-93491350D01*
X45501500Y-94593918D01*
X45481498Y-94662039D01*
X45427842Y-94708532D01*
X45357568Y-94718636D01*
X45292988Y-94689142D01*
X45286405Y-94683013D01*
X44569589Y-93966197D01*
X44537281Y-93933889D01*
X44531092Y-93930000D01*
X44504584Y-93913344D01*
X44493062Y-93905168D01*
X44462872Y-93881092D01*
X44462868Y-93881090D01*
X44428074Y-93864334D01*
X44415709Y-93857500D01*
X44414043Y-93856453D01*
X44383015Y-93836957D01*
X44346566Y-93824203D01*
X44333513Y-93818796D01*
X44298724Y-93802042D01*
X44298716Y-93802040D01*
X44261065Y-93793445D01*
X44247495Y-93789535D01*
X44211053Y-93776784D01*
X44211046Y-93776782D01*
X44172668Y-93772458D01*
X44158741Y-93770091D01*
X44121100Y-93761500D01*
X44121097Y-93761500D01*
X44075406Y-93761500D01*
X43606502Y-93761500D01*
X43079984Y-93761500D01*
X43065877Y-93760708D01*
X43027500Y-93756384D01*
X42989123Y-93760708D01*
X42975016Y-93761500D01*
X42448489Y-93761500D01*
X42411171Y-93764437D01*
X42411170Y-93764437D01*
X42251396Y-93810856D01*
X42207263Y-93836957D01*
X42174296Y-93856453D01*
X42110158Y-93874000D01*
X41860006Y-93874000D01*
X41857241Y-93877683D01*
X41800345Y-93920148D01*
X41729522Y-93925112D01*
X41679941Y-93897992D01*
X41678070Y-93900405D01*
X41671803Y-93895544D01*
X41528605Y-93810856D01*
X41368829Y-93764437D01*
X41331511Y-93761500D01*
X41331502Y-93761500D01*
X40777906Y-93761500D01*
X39264500Y-93761500D01*
X39196379Y-93741498D01*
X39149886Y-93687842D01*
X39138500Y-93635500D01*
X39138500Y-89948905D01*
X39129906Y-89911254D01*
X39127539Y-89897320D01*
X39123217Y-89858957D01*
X39123217Y-89858953D01*
X39110457Y-89822489D01*
X39106553Y-89808936D01*
X39097959Y-89771280D01*
X39081200Y-89736481D01*
X39075800Y-89723444D01*
X39063043Y-89686985D01*
X39042496Y-89654285D01*
X39035664Y-89641925D01*
X39018909Y-89607131D01*
X39018906Y-89607127D01*
X38994830Y-89576936D01*
X38986653Y-89565412D01*
X38966110Y-89532718D01*
X38906893Y-89473501D01*
X38837281Y-89403889D01*
X37862904Y-88429512D01*
X37828878Y-88367200D01*
X37825999Y-88340417D01*
X37825999Y-87694455D01*
X37815387Y-87590574D01*
X37809061Y-87571484D01*
X37759615Y-87422262D01*
X37666530Y-87271348D01*
X37666527Y-87271345D01*
X37666524Y-87271341D01*
X37575405Y-87180222D01*
X37541379Y-87117910D01*
X37538500Y-87091127D01*
X37538500Y-87014000D01*
X39859500Y-87014000D01*
X39859500Y-87285516D01*
X39870105Y-87389318D01*
X39870106Y-87389321D01*
X39925842Y-87557525D01*
X40018865Y-87708339D01*
X40018870Y-87708345D01*
X40144154Y-87833629D01*
X40144160Y-87833634D01*
X40294974Y-87926657D01*
X40463178Y-87982393D01*
X40463181Y-87982394D01*
X40566983Y-87992999D01*
X40566983Y-87993000D01*
X40701000Y-87993000D01*
X40701000Y-87014000D01*
X39859500Y-87014000D01*
X37538500Y-87014000D01*
X37538500Y-86868872D01*
X37558502Y-86800751D01*
X37575400Y-86779781D01*
X37666530Y-86688652D01*
X37759615Y-86537738D01*
X37770132Y-86506000D01*
X39859500Y-86506000D01*
X40701000Y-86506000D01*
X40701000Y-85527000D01*
X40566983Y-85527000D01*
X40463181Y-85537605D01*
X40463178Y-85537606D01*
X40294974Y-85593342D01*
X40144160Y-85686365D01*
X40144154Y-85686370D01*
X40018870Y-85811654D01*
X40018865Y-85811660D01*
X39925842Y-85962474D01*
X39870106Y-86130678D01*
X39870105Y-86130681D01*
X39859500Y-86234483D01*
X39859500Y-86506000D01*
X37770132Y-86506000D01*
X37815387Y-86369426D01*
X37826000Y-86265545D01*
X37825999Y-85214456D01*
X37815387Y-85110574D01*
X37759615Y-84942262D01*
X37666530Y-84791348D01*
X37666529Y-84791347D01*
X37666524Y-84791341D01*
X37575405Y-84700222D01*
X37541379Y-84637910D01*
X37538500Y-84611127D01*
X37538500Y-84248905D01*
X37529906Y-84211254D01*
X37527539Y-84197320D01*
X37523217Y-84158957D01*
X37523217Y-84158953D01*
X37510457Y-84122489D01*
X37506553Y-84108936D01*
X37497959Y-84071280D01*
X37481200Y-84036481D01*
X37475800Y-84023444D01*
X37463043Y-83986985D01*
X37442496Y-83954285D01*
X37435664Y-83941925D01*
X37418909Y-83907131D01*
X37418906Y-83907127D01*
X37394830Y-83876936D01*
X37386653Y-83865412D01*
X37366110Y-83832718D01*
X37303392Y-83770000D01*
X37237281Y-83703889D01*
X36555405Y-83022013D01*
X36521379Y-82959701D01*
X36518500Y-82932918D01*
X36518500Y-82881370D01*
X36538502Y-82813249D01*
X36592158Y-82766756D01*
X36631034Y-82756092D01*
X36642151Y-82754896D01*
X36669195Y-82751990D01*
X36669198Y-82751989D01*
X36669201Y-82751989D01*
X36806204Y-82700889D01*
X36876399Y-82648342D01*
X36923261Y-82613261D01*
X37010886Y-82496208D01*
X37010885Y-82496208D01*
X37010889Y-82496204D01*
X37055196Y-82377413D01*
X37097741Y-82320581D01*
X37164262Y-82295770D01*
X37233636Y-82310862D01*
X37265952Y-82336112D01*
X37327097Y-82402534D01*
X37504698Y-82540767D01*
X37504699Y-82540768D01*
X37702628Y-82647882D01*
X37702630Y-82647883D01*
X37915483Y-82720955D01*
X37915492Y-82720957D01*
X37996000Y-82734391D01*
X37996000Y-81833674D01*
X38107685Y-81884680D01*
X38214237Y-81900000D01*
X38285763Y-81900000D01*
X38392315Y-81884680D01*
X38504000Y-81833674D01*
X38504000Y-82734390D01*
X38584507Y-82720957D01*
X38584516Y-82720955D01*
X38797369Y-82647883D01*
X38797371Y-82647882D01*
X38995300Y-82540768D01*
X38995301Y-82540767D01*
X39172902Y-82402534D01*
X39325327Y-82236955D01*
X39414217Y-82100899D01*
X39468220Y-82054810D01*
X39538568Y-82045235D01*
X39602925Y-82075212D01*
X39625183Y-82100898D01*
X39714279Y-82237270D01*
X39866762Y-82402908D01*
X39877801Y-82411500D01*
X40044424Y-82541189D01*
X40242426Y-82648342D01*
X40242427Y-82648342D01*
X40242428Y-82648343D01*
X40354227Y-82686723D01*
X40455365Y-82721444D01*
X40677431Y-82758500D01*
X40677435Y-82758500D01*
X40902571Y-82758500D01*
X40998513Y-82742489D01*
X41047669Y-82734287D01*
X41118153Y-82742803D01*
X41157503Y-82769473D01*
X42264595Y-83876565D01*
X42298621Y-83938877D01*
X42301500Y-83965660D01*
X42301500Y-85564666D01*
X42281498Y-85632787D01*
X42241649Y-85671905D01*
X42218852Y-85685966D01*
X42218841Y-85685975D01*
X42093471Y-85811345D01*
X42091011Y-85814457D01*
X42088781Y-85816035D01*
X42088280Y-85816537D01*
X42088194Y-85816451D01*
X42033068Y-85855483D01*
X41962143Y-85858671D01*
X41900754Y-85823008D01*
X41893337Y-85814446D01*
X41891132Y-85811657D01*
X41765845Y-85686370D01*
X41765839Y-85686365D01*
X41615025Y-85593342D01*
X41446821Y-85537606D01*
X41446818Y-85537605D01*
X41343016Y-85527000D01*
X41209000Y-85527000D01*
X41209000Y-87993000D01*
X41343017Y-87993000D01*
X41343016Y-87992999D01*
X41446818Y-87982394D01*
X41446821Y-87982393D01*
X41615025Y-87926657D01*
X41765839Y-87833634D01*
X41765845Y-87833629D01*
X41891124Y-87708350D01*
X41893332Y-87705558D01*
X41895337Y-87704137D01*
X41896325Y-87703150D01*
X41896493Y-87703318D01*
X41951268Y-87664522D01*
X42022193Y-87661323D01*
X42083588Y-87696976D01*
X42091015Y-87705547D01*
X42093474Y-87708657D01*
X42218841Y-87834024D01*
X42218845Y-87834027D01*
X42218848Y-87834030D01*
X42218850Y-87834031D01*
X42241646Y-87848092D01*
X42289125Y-87900878D01*
X42301500Y-87955333D01*
X42301500Y-91809356D01*
X42281498Y-91877477D01*
X42239639Y-91917809D01*
X42108196Y-91995544D01*
X42108189Y-91995549D01*
X41990545Y-92113193D01*
X41989556Y-92114469D01*
X41988526Y-92115212D01*
X41984941Y-92118798D01*
X41984362Y-92118219D01*
X41931998Y-92156034D01*
X41861106Y-92159881D01*
X41799387Y-92124791D01*
X41790444Y-92114469D01*
X41789454Y-92113193D01*
X41671810Y-91995549D01*
X41671803Y-91995544D01*
X41528605Y-91910856D01*
X41368829Y-91864437D01*
X41331511Y-91861500D01*
X41331502Y-91861500D01*
X40173498Y-91861500D01*
X40173489Y-91861500D01*
X40136171Y-91864437D01*
X40136170Y-91864437D01*
X39976394Y-91910856D01*
X39833196Y-91995544D01*
X39833189Y-91995549D01*
X39715549Y-92113189D01*
X39715544Y-92113196D01*
X39630856Y-92256394D01*
X39584437Y-92416170D01*
X39584437Y-92416171D01*
X39581500Y-92453488D01*
X39581500Y-92886511D01*
X39584437Y-92923828D01*
X39584437Y-92923829D01*
X39630856Y-93083605D01*
X39715544Y-93226803D01*
X39715549Y-93226810D01*
X39833189Y-93344450D01*
X39833196Y-93344455D01*
X39976394Y-93429143D01*
X39976397Y-93429143D01*
X39976399Y-93429145D01*
X40136169Y-93475562D01*
X40173488Y-93478499D01*
X40173489Y-93478500D01*
X40173498Y-93478500D01*
X41331511Y-93478500D01*
X41331511Y-93478499D01*
X41368831Y-93475562D01*
X41528601Y-93429145D01*
X41528603Y-93429143D01*
X41528605Y-93429143D01*
X41635373Y-93366000D01*
X41671807Y-93344453D01*
X41671811Y-93344448D01*
X41678070Y-93339595D01*
X41679952Y-93342021D01*
X41729646Y-93314860D01*
X41800464Y-93319895D01*
X41857242Y-93362317D01*
X41860007Y-93366000D01*
X42110158Y-93366000D01*
X42174296Y-93383546D01*
X42251399Y-93429145D01*
X42411169Y-93475562D01*
X42448488Y-93478499D01*
X42448489Y-93478500D01*
X42448498Y-93478500D01*
X43606511Y-93478500D01*
X43606511Y-93478499D01*
X43643831Y-93475562D01*
X43803601Y-93429145D01*
X43880703Y-93383546D01*
X43944842Y-93366000D01*
X44194992Y-93366000D01*
X44148679Y-93206594D01*
X44145533Y-93199322D01*
X44147627Y-93198415D01*
X44133015Y-93140810D01*
X44147490Y-93091522D01*
X44145997Y-93090876D01*
X44149143Y-93083604D01*
X44149142Y-93083604D01*
X44149145Y-93083601D01*
X44195562Y-92923831D01*
X44198499Y-92886511D01*
X44198500Y-92886511D01*
X44198500Y-92453489D01*
X44198499Y-92453488D01*
X44195562Y-92416171D01*
X44195562Y-92416170D01*
X44188804Y-92392908D01*
X44149145Y-92256399D01*
X44149143Y-92256397D01*
X44149143Y-92256394D01*
X44064455Y-92113196D01*
X44064450Y-92113189D01*
X43946810Y-91995549D01*
X43946803Y-91995544D01*
X43803604Y-91910855D01*
X43796331Y-91907709D01*
X43797512Y-91904977D01*
X43749476Y-91874270D01*
X43719826Y-91809761D01*
X43718500Y-91791527D01*
X43718500Y-87980005D01*
X43738502Y-87911884D01*
X43778354Y-87872764D01*
X43782968Y-87869917D01*
X43841152Y-87834030D01*
X43966530Y-87708652D01*
X44059615Y-87557738D01*
X44060568Y-87554863D01*
X44061755Y-87553148D01*
X44062717Y-87551086D01*
X44063069Y-87551250D01*
X44100984Y-87496493D01*
X44166541Y-87469239D01*
X44180171Y-87468500D01*
X45375500Y-87468500D01*
X45443621Y-87488502D01*
X45490114Y-87542158D01*
X45501500Y-87594500D01*
X45501500Y-87668649D01*
X45508009Y-87729196D01*
X45508011Y-87729204D01*
X45559110Y-87866202D01*
X45559112Y-87866207D01*
X45632687Y-87964491D01*
X45657498Y-88031011D01*
X45642407Y-88100385D01*
X45632687Y-88115509D01*
X45559112Y-88213792D01*
X45559110Y-88213797D01*
X45508011Y-88350795D01*
X45508009Y-88350803D01*
X45501500Y-88411350D01*
X45501500Y-90208649D01*
X45508009Y-90269196D01*
X45508011Y-90269204D01*
X45559110Y-90406202D01*
X45559112Y-90406207D01*
X45632999Y-90504907D01*
X45657810Y-90571427D01*
X45642719Y-90640801D01*
X45633000Y-90655924D01*
X45559555Y-90754035D01*
X45508505Y-90890906D01*
X45502000Y-90951402D01*
X45502000Y-91596000D01*
X50018000Y-91596000D01*
X50018000Y-90951414D01*
X50017999Y-90951402D01*
X50011494Y-90890906D01*
X49960444Y-90754035D01*
X49960444Y-90754034D01*
X49887000Y-90655925D01*
X49862189Y-90589405D01*
X49877280Y-90520031D01*
X49886998Y-90504909D01*
X49960889Y-90406204D01*
X50011989Y-90269201D01*
X50014182Y-90248810D01*
X50018499Y-90208649D01*
X50018500Y-90208632D01*
X50018500Y-88411367D01*
X50018499Y-88411350D01*
X50011990Y-88350803D01*
X50011988Y-88350795D01*
X49960889Y-88213797D01*
X49960889Y-88213796D01*
X49931686Y-88174786D01*
X49887311Y-88115507D01*
X49862501Y-88048989D01*
X49877592Y-87979615D01*
X49887306Y-87964497D01*
X49960889Y-87866204D01*
X50011989Y-87729201D01*
X50014182Y-87708810D01*
X50018499Y-87668649D01*
X50018500Y-87668632D01*
X50018500Y-85871367D01*
X50018499Y-85871350D01*
X50011990Y-85810803D01*
X50011988Y-85810795D01*
X49965577Y-85686365D01*
X49960889Y-85673796D01*
X49887311Y-85575507D01*
X49862501Y-85508989D01*
X49877592Y-85439615D01*
X49887306Y-85424497D01*
X49960889Y-85326204D01*
X50011989Y-85189201D01*
X50014182Y-85168810D01*
X50018499Y-85128649D01*
X50018500Y-85128632D01*
X50018500Y-83899461D01*
X53129329Y-83899461D01*
X53181233Y-98310013D01*
X53181234Y-98310014D01*
X61681234Y-98320014D01*
X61679329Y-83889461D01*
X61679328Y-83889461D01*
X53129329Y-83899460D01*
X53129329Y-83899461D01*
X50018500Y-83899461D01*
X50018500Y-83331367D01*
X50018499Y-83331350D01*
X50011990Y-83270803D01*
X50011988Y-83270795D01*
X49960889Y-83133797D01*
X49960889Y-83133796D01*
X49931686Y-83094786D01*
X49887311Y-83035507D01*
X49862501Y-82968989D01*
X49877592Y-82899615D01*
X49887306Y-82884497D01*
X49960889Y-82786204D01*
X50011989Y-82649201D01*
X50012082Y-82648343D01*
X50018499Y-82588649D01*
X50018500Y-82588632D01*
X50018500Y-80791367D01*
X50018499Y-80791350D01*
X50011990Y-80730803D01*
X50011988Y-80730795D01*
X49960889Y-80593797D01*
X49960887Y-80593792D01*
X49887000Y-80495091D01*
X49862189Y-80428571D01*
X49877280Y-80359197D01*
X49887001Y-80344072D01*
X49960443Y-80245966D01*
X49960444Y-80245964D01*
X50011494Y-80109093D01*
X50017999Y-80048597D01*
X50018000Y-80048585D01*
X50018000Y-79404000D01*
X45502000Y-79404000D01*
X45502000Y-80048597D01*
X45508505Y-80109093D01*
X45559555Y-80245964D01*
X45559556Y-80245966D01*
X45632999Y-80344072D01*
X45657811Y-80410592D01*
X45642720Y-80479966D01*
X45633000Y-80495091D01*
X45559112Y-80593792D01*
X45559110Y-80593797D01*
X45508011Y-80730795D01*
X45508009Y-80730803D01*
X45501500Y-80791350D01*
X45501500Y-82588649D01*
X45508009Y-82649196D01*
X45508011Y-82649204D01*
X45559110Y-82786202D01*
X45559112Y-82786207D01*
X45632687Y-82884491D01*
X45657498Y-82951011D01*
X45642407Y-83020385D01*
X45632687Y-83035509D01*
X45559112Y-83133792D01*
X45559110Y-83133797D01*
X45508011Y-83270795D01*
X45508009Y-83270803D01*
X45501500Y-83331350D01*
X45501500Y-85128649D01*
X45508009Y-85189196D01*
X45508011Y-85189204D01*
X45559110Y-85326202D01*
X45559112Y-85326207D01*
X45632687Y-85424491D01*
X45657498Y-85491011D01*
X45642407Y-85560385D01*
X45632687Y-85575509D01*
X45559112Y-85673792D01*
X45559110Y-85673797D01*
X45508011Y-85810795D01*
X45508009Y-85810803D01*
X45501500Y-85871350D01*
X45501500Y-85925500D01*
X45481498Y-85993621D01*
X45427842Y-86040114D01*
X45375500Y-86051500D01*
X44180171Y-86051500D01*
X44112050Y-86031498D01*
X44065557Y-85977842D01*
X44060568Y-85965137D01*
X44059616Y-85962264D01*
X44036940Y-85925500D01*
X43966530Y-85811348D01*
X43966527Y-85811345D01*
X43966524Y-85811341D01*
X43841158Y-85685975D01*
X43841150Y-85685968D01*
X43778352Y-85647234D01*
X43730875Y-85594448D01*
X43718500Y-85539994D01*
X43718500Y-83645216D01*
X43718730Y-83637608D01*
X43719197Y-83629887D01*
X43722402Y-83576907D01*
X43711431Y-83517042D01*
X43710299Y-83509605D01*
X43702965Y-83449199D01*
X43702964Y-83449197D01*
X43702964Y-83449195D01*
X43699351Y-83439668D01*
X43693227Y-83417702D01*
X43691389Y-83407673D01*
X43691389Y-83407671D01*
X43666427Y-83352208D01*
X43663515Y-83345176D01*
X43641957Y-83288332D01*
X43641955Y-83288329D01*
X43641954Y-83288325D01*
X43636163Y-83279935D01*
X43624958Y-83260070D01*
X43620775Y-83250774D01*
X43583267Y-83202899D01*
X43578756Y-83196768D01*
X43544215Y-83146727D01*
X43544212Y-83146724D01*
X43498682Y-83106387D01*
X43493141Y-83101171D01*
X42161299Y-81769329D01*
X42127273Y-81707017D01*
X42128250Y-81649301D01*
X42134562Y-81624374D01*
X42134563Y-81624372D01*
X42134563Y-81624371D01*
X42134564Y-81624368D01*
X42153156Y-81400000D01*
X42134564Y-81175632D01*
X42079296Y-80957384D01*
X41988860Y-80751209D01*
X41975528Y-80730803D01*
X41865724Y-80562734D01*
X41865720Y-80562729D01*
X41742217Y-80428571D01*
X41713240Y-80397094D01*
X41713239Y-80397093D01*
X41713237Y-80397091D01*
X41593367Y-80303792D01*
X41535576Y-80258811D01*
X41337574Y-80151658D01*
X41337572Y-80151657D01*
X41337571Y-80151656D01*
X41124639Y-80078557D01*
X41124630Y-80078555D01*
X41078233Y-80070813D01*
X40902569Y-80041500D01*
X40677431Y-80041500D01*
X40616250Y-80051708D01*
X40532327Y-80065712D01*
X40461843Y-80057194D01*
X40422495Y-80030525D01*
X39985405Y-79593435D01*
X39951379Y-79531123D01*
X39948500Y-79504340D01*
X39948500Y-72458649D01*
X40691500Y-72458649D01*
X40698009Y-72519196D01*
X40698011Y-72519204D01*
X40749110Y-72656202D01*
X40749112Y-72656207D01*
X40836738Y-72773261D01*
X40953792Y-72860887D01*
X40953796Y-72860889D01*
X41069312Y-72903975D01*
X41126148Y-72946522D01*
X41150958Y-73013042D01*
X41135866Y-73082416D01*
X41117981Y-73107367D01*
X40974674Y-73263041D01*
X40851580Y-73451451D01*
X40761179Y-73657543D01*
X40761176Y-73657550D01*
X40713455Y-73845999D01*
X40713456Y-73846000D01*
X41618884Y-73846000D01*
X41590507Y-73890156D01*
X41550000Y-74028111D01*
X41550000Y-74171889D01*
X41590507Y-74309844D01*
X41618884Y-74354000D01*
X40713455Y-74354000D01*
X40761176Y-74542449D01*
X40761179Y-74542456D01*
X40851580Y-74748548D01*
X40974674Y-74936958D01*
X41127097Y-75102534D01*
X41304698Y-75240767D01*
X41304699Y-75240768D01*
X41338734Y-75259187D01*
X41389123Y-75309201D01*
X41404475Y-75378518D01*
X41379913Y-75445130D01*
X41338734Y-75480813D01*
X41304699Y-75499231D01*
X41304698Y-75499232D01*
X41127097Y-75637465D01*
X40974674Y-75803041D01*
X40851580Y-75991451D01*
X40761179Y-76197543D01*
X40761176Y-76197550D01*
X40713455Y-76385999D01*
X40713456Y-76386000D01*
X41618884Y-76386000D01*
X41590507Y-76430156D01*
X41550000Y-76568111D01*
X41550000Y-76711889D01*
X41590507Y-76849844D01*
X41618884Y-76894000D01*
X40713455Y-76894000D01*
X40761176Y-77082449D01*
X40761179Y-77082456D01*
X40851580Y-77288548D01*
X40974674Y-77476958D01*
X41127097Y-77642534D01*
X41304698Y-77780767D01*
X41304699Y-77780768D01*
X41502628Y-77887882D01*
X41502630Y-77887883D01*
X41715483Y-77960955D01*
X41715492Y-77960957D01*
X41796000Y-77974391D01*
X41796000Y-77073674D01*
X41907685Y-77124680D01*
X42014237Y-77140000D01*
X42085763Y-77140000D01*
X42192315Y-77124680D01*
X42304000Y-77073674D01*
X42304000Y-77974390D01*
X42384507Y-77960957D01*
X42384516Y-77960955D01*
X42597369Y-77887883D01*
X42597371Y-77887882D01*
X42795300Y-77780768D01*
X42795301Y-77780767D01*
X42972902Y-77642534D01*
X43125325Y-77476958D01*
X43248419Y-77288548D01*
X43338820Y-77082456D01*
X43338823Y-77082449D01*
X43386544Y-76894000D01*
X42481116Y-76894000D01*
X42509493Y-76849844D01*
X42550000Y-76711889D01*
X42550000Y-76568111D01*
X42509493Y-76430156D01*
X42481116Y-76386000D01*
X43386544Y-76386000D01*
X43386544Y-76385999D01*
X43338823Y-76197550D01*
X43338820Y-76197543D01*
X43248419Y-75991451D01*
X43125325Y-75803041D01*
X42972902Y-75637465D01*
X42795301Y-75499232D01*
X42795300Y-75499231D01*
X42761267Y-75480814D01*
X42710876Y-75430801D01*
X42695524Y-75361484D01*
X42720085Y-75294871D01*
X42761267Y-75259186D01*
X42795300Y-75240768D01*
X42795301Y-75240767D01*
X42972902Y-75102534D01*
X43125325Y-74936958D01*
X43248419Y-74748548D01*
X43338820Y-74542456D01*
X43338823Y-74542449D01*
X43386544Y-74354000D01*
X42481116Y-74354000D01*
X42509493Y-74309844D01*
X42550000Y-74171889D01*
X42550000Y-74028111D01*
X42509493Y-73890156D01*
X42481116Y-73846000D01*
X43386544Y-73846000D01*
X43386544Y-73845999D01*
X43338823Y-73657550D01*
X43338820Y-73657543D01*
X43248419Y-73451451D01*
X43125325Y-73263041D01*
X42982018Y-73107367D01*
X42950598Y-73043702D01*
X42958585Y-72973156D01*
X43003444Y-72918127D01*
X43030679Y-72903977D01*
X43146204Y-72860889D01*
X43263261Y-72773261D01*
X43313845Y-72705689D01*
X43350887Y-72656207D01*
X43350887Y-72656206D01*
X43350889Y-72656204D01*
X43401989Y-72519201D01*
X43402428Y-72515123D01*
X43408499Y-72458649D01*
X43408500Y-72458632D01*
X43408500Y-72354500D01*
X43428502Y-72286379D01*
X43482158Y-72239886D01*
X43534500Y-72228500D01*
X45375500Y-72228500D01*
X45443621Y-72248502D01*
X45490114Y-72302158D01*
X45501500Y-72354500D01*
X45501500Y-72428649D01*
X45508009Y-72489196D01*
X45508011Y-72489204D01*
X45559110Y-72626202D01*
X45559112Y-72626207D01*
X45632687Y-72724491D01*
X45657498Y-72791011D01*
X45642407Y-72860385D01*
X45632687Y-72875509D01*
X45559112Y-72973792D01*
X45559110Y-72973797D01*
X45508011Y-73110795D01*
X45508009Y-73110803D01*
X45501500Y-73171350D01*
X45501500Y-74968649D01*
X45508009Y-75029196D01*
X45508011Y-75029204D01*
X45559110Y-75166202D01*
X45559112Y-75166207D01*
X45632687Y-75264491D01*
X45657498Y-75331011D01*
X45642407Y-75400385D01*
X45632687Y-75415509D01*
X45559112Y-75513792D01*
X45559110Y-75513797D01*
X45508011Y-75650795D01*
X45508009Y-75650803D01*
X45501500Y-75711350D01*
X45501500Y-77508649D01*
X45508009Y-77569196D01*
X45508011Y-77569204D01*
X45559110Y-77706202D01*
X45559112Y-77706207D01*
X45632999Y-77804907D01*
X45657810Y-77871427D01*
X45642719Y-77940801D01*
X45633000Y-77955924D01*
X45559555Y-78054035D01*
X45508505Y-78190906D01*
X45502000Y-78251402D01*
X45502000Y-78896000D01*
X50018000Y-78896000D01*
X50018000Y-78251414D01*
X50017999Y-78251402D01*
X50011494Y-78190906D01*
X49960444Y-78054035D01*
X49960444Y-78054034D01*
X49887000Y-77955925D01*
X49862189Y-77889405D01*
X49877280Y-77820031D01*
X49886998Y-77804909D01*
X49960889Y-77706204D01*
X50011989Y-77569201D01*
X50014182Y-77548810D01*
X50018499Y-77508649D01*
X50018500Y-77508632D01*
X50018500Y-75711367D01*
X50018499Y-75711350D01*
X50011990Y-75650803D01*
X50011988Y-75650795D01*
X49960889Y-75513797D01*
X49960889Y-75513796D01*
X49931686Y-75474786D01*
X49887311Y-75415507D01*
X49862501Y-75348989D01*
X49877592Y-75279615D01*
X49887306Y-75264497D01*
X49960889Y-75166204D01*
X50011989Y-75029201D01*
X50014182Y-75008810D01*
X50018499Y-74968649D01*
X50018500Y-74968632D01*
X50018500Y-73171367D01*
X50018499Y-73171350D01*
X50011990Y-73110803D01*
X50011988Y-73110795D01*
X49960889Y-72973797D01*
X49960889Y-72973796D01*
X49931686Y-72934786D01*
X49887311Y-72875507D01*
X49862501Y-72808989D01*
X49877592Y-72739615D01*
X49887306Y-72724497D01*
X49960889Y-72626204D01*
X50011989Y-72489201D01*
X50014182Y-72468810D01*
X50018499Y-72428649D01*
X50018500Y-72428632D01*
X50018500Y-70631367D01*
X50018499Y-70631350D01*
X50011990Y-70570803D01*
X50011988Y-70570795D01*
X49972079Y-70463797D01*
X49960889Y-70433796D01*
X49887311Y-70335507D01*
X49862501Y-70268989D01*
X49877592Y-70199615D01*
X49887306Y-70184497D01*
X49960889Y-70086204D01*
X50011989Y-69949201D01*
X50014182Y-69928810D01*
X50018499Y-69888649D01*
X50018500Y-69888632D01*
X50018500Y-68091367D01*
X50018499Y-68091350D01*
X50011990Y-68030803D01*
X50011988Y-68030795D01*
X49960889Y-67893797D01*
X49960887Y-67893792D01*
X49887000Y-67795091D01*
X49862189Y-67728571D01*
X49877280Y-67659197D01*
X49887001Y-67644072D01*
X49960443Y-67545966D01*
X49960444Y-67545964D01*
X50011494Y-67409093D01*
X50017999Y-67348597D01*
X50018000Y-67348585D01*
X50018000Y-66704000D01*
X45502000Y-66704000D01*
X45502000Y-67348597D01*
X45508505Y-67409093D01*
X45559555Y-67545964D01*
X45559556Y-67545966D01*
X45632999Y-67644072D01*
X45657811Y-67710592D01*
X45642720Y-67779966D01*
X45633000Y-67795091D01*
X45559112Y-67893792D01*
X45559110Y-67893797D01*
X45508011Y-68030795D01*
X45508009Y-68030803D01*
X45501500Y-68091350D01*
X45501500Y-69888649D01*
X45508009Y-69949196D01*
X45508011Y-69949204D01*
X45559110Y-70086202D01*
X45559112Y-70086207D01*
X45632687Y-70184491D01*
X45657498Y-70251011D01*
X45642407Y-70320385D01*
X45632687Y-70335509D01*
X45559112Y-70433792D01*
X45559110Y-70433797D01*
X45508011Y-70570795D01*
X45508009Y-70570803D01*
X45501500Y-70631350D01*
X45501500Y-70685500D01*
X45481498Y-70753621D01*
X45427842Y-70800114D01*
X45375500Y-70811500D01*
X43534500Y-70811500D01*
X43466379Y-70791498D01*
X43419886Y-70737842D01*
X43408500Y-70685500D01*
X43408500Y-70661367D01*
X43408499Y-70661350D01*
X43401990Y-70600803D01*
X43401988Y-70600795D01*
X43350889Y-70463797D01*
X43350887Y-70463792D01*
X43263261Y-70346738D01*
X43146207Y-70259112D01*
X43146202Y-70259110D01*
X43009204Y-70208011D01*
X43009196Y-70208009D01*
X42948649Y-70201500D01*
X42948638Y-70201500D01*
X41151362Y-70201500D01*
X41151350Y-70201500D01*
X41090803Y-70208009D01*
X41090795Y-70208011D01*
X40953797Y-70259110D01*
X40953792Y-70259112D01*
X40836738Y-70346738D01*
X40749112Y-70463792D01*
X40749110Y-70463797D01*
X40698011Y-70600795D01*
X40698009Y-70600803D01*
X40691500Y-70661350D01*
X40691500Y-72458649D01*
X39948500Y-72458649D01*
X39948500Y-67605333D01*
X39949418Y-67590154D01*
X39950070Y-67584782D01*
X39950294Y-67582932D01*
X39951434Y-67575441D01*
X39962402Y-67515593D01*
X39958730Y-67454890D01*
X39958500Y-67447282D01*
X39958500Y-66742375D01*
X39978502Y-66674254D01*
X40032158Y-66627761D01*
X40044868Y-66622770D01*
X40044871Y-66622769D01*
X40197738Y-66572115D01*
X40348652Y-66479030D01*
X40474030Y-66353652D01*
X40567115Y-66202738D01*
X40622887Y-66034426D01*
X40633500Y-65930545D01*
X40633499Y-65029456D01*
X40633282Y-65027336D01*
X40622887Y-64925574D01*
X40604207Y-64869201D01*
X40567733Y-64759129D01*
X40565294Y-64688178D01*
X40601602Y-64627168D01*
X40665131Y-64595473D01*
X40687339Y-64593500D01*
X45375500Y-64593500D01*
X45443621Y-64613502D01*
X45490114Y-64667158D01*
X45501500Y-64719500D01*
X45501500Y-64808649D01*
X45508009Y-64869196D01*
X45508011Y-64869204D01*
X45559110Y-65006202D01*
X45559112Y-65006207D01*
X45632999Y-65104907D01*
X45657810Y-65171427D01*
X45642719Y-65240801D01*
X45633000Y-65255924D01*
X45559555Y-65354035D01*
X45508505Y-65490906D01*
X45502000Y-65551402D01*
X45502000Y-66196000D01*
X50018000Y-66196000D01*
X50018000Y-65551414D01*
X50017999Y-65551402D01*
X50011494Y-65490906D01*
X49960444Y-65354035D01*
X49960444Y-65354034D01*
X49887000Y-65255925D01*
X49862189Y-65189405D01*
X49877280Y-65120031D01*
X49886998Y-65104909D01*
X49960889Y-65006204D01*
X50011989Y-64869201D01*
X50012418Y-64865216D01*
X50018499Y-64808649D01*
X50018500Y-64808632D01*
X50018500Y-63011367D01*
X50018499Y-63011350D01*
X50011990Y-62950803D01*
X50011988Y-62950795D01*
X49967136Y-62830545D01*
X49960889Y-62813796D01*
X49887311Y-62715507D01*
X49862501Y-62648989D01*
X49877592Y-62579615D01*
X49887306Y-62564497D01*
X49960889Y-62466204D01*
X50011989Y-62329201D01*
X50014182Y-62308810D01*
X50018499Y-62268649D01*
X50018500Y-62268632D01*
X50018500Y-60471367D01*
X50018499Y-60471350D01*
X50011990Y-60410803D01*
X50011988Y-60410795D01*
X49960889Y-60273797D01*
X49960889Y-60273796D01*
X49931686Y-60234786D01*
X49887311Y-60175507D01*
X49862501Y-60108989D01*
X49877592Y-60039615D01*
X49887306Y-60024497D01*
X49960889Y-59926204D01*
X50011989Y-59789201D01*
X50014182Y-59768810D01*
X50018499Y-59728649D01*
X50018500Y-59728632D01*
X50018500Y-59664500D01*
X50038502Y-59596379D01*
X50092158Y-59549886D01*
X50144500Y-59538500D01*
X54384782Y-59538500D01*
X54392390Y-59538730D01*
X54453093Y-59542402D01*
X54512951Y-59531432D01*
X54520398Y-59530299D01*
X54580801Y-59522965D01*
X54590330Y-59519350D01*
X54612304Y-59513226D01*
X54622329Y-59511389D01*
X54677797Y-59486423D01*
X54684802Y-59483522D01*
X54741675Y-59461954D01*
X54750066Y-59456161D01*
X54769922Y-59444961D01*
X54779226Y-59440775D01*
X54827140Y-59403235D01*
X54833195Y-59398780D01*
X54883273Y-59364215D01*
X54923627Y-59318663D01*
X54928812Y-59313156D01*
X62133319Y-52108649D01*
X65081500Y-52108649D01*
X65088009Y-52169196D01*
X65088011Y-52169204D01*
X65139110Y-52306202D01*
X65139112Y-52306207D01*
X65212999Y-52404907D01*
X65237810Y-52471427D01*
X65222719Y-52540801D01*
X65213000Y-52555924D01*
X65139555Y-52654035D01*
X65088505Y-52790906D01*
X65082000Y-52851402D01*
X65082000Y-53496000D01*
X69598000Y-53496000D01*
X69598000Y-52851414D01*
X69597999Y-52851402D01*
X69591494Y-52790906D01*
X69540444Y-52654035D01*
X69540444Y-52654034D01*
X69467000Y-52555925D01*
X69442189Y-52489405D01*
X69457280Y-52420031D01*
X69466998Y-52404909D01*
X69540889Y-52306204D01*
X69591989Y-52169201D01*
X69598500Y-52108638D01*
X69598500Y-50311362D01*
X69592817Y-50258499D01*
X69591990Y-50250803D01*
X69591988Y-50250795D01*
X69540889Y-50113797D01*
X69540889Y-50113796D01*
X69540886Y-50113792D01*
X69467311Y-50015507D01*
X69442501Y-49948989D01*
X69457592Y-49879615D01*
X69467306Y-49864497D01*
X69540889Y-49766204D01*
X69591989Y-49629201D01*
X69598500Y-49568638D01*
X69598500Y-47771362D01*
X69598499Y-47771350D01*
X69591990Y-47710803D01*
X69591988Y-47710795D01*
X69540889Y-47573797D01*
X69540887Y-47573792D01*
X69453261Y-47456738D01*
X69336207Y-47369112D01*
X69336202Y-47369110D01*
X69199204Y-47318011D01*
X69199196Y-47318009D01*
X69138649Y-47311500D01*
X69138638Y-47311500D01*
X65541362Y-47311500D01*
X65541350Y-47311500D01*
X65480803Y-47318009D01*
X65480795Y-47318011D01*
X65343797Y-47369110D01*
X65343792Y-47369112D01*
X65226738Y-47456738D01*
X65139112Y-47573792D01*
X65139110Y-47573797D01*
X65088011Y-47710795D01*
X65088009Y-47710803D01*
X65081500Y-47771350D01*
X65081500Y-49568649D01*
X65088009Y-49629196D01*
X65088011Y-49629204D01*
X65139110Y-49766202D01*
X65139112Y-49766207D01*
X65212687Y-49864491D01*
X65237498Y-49931011D01*
X65222407Y-50000385D01*
X65212687Y-50015509D01*
X65139112Y-50113792D01*
X65139110Y-50113797D01*
X65088011Y-50250795D01*
X65088009Y-50250803D01*
X65081500Y-50311350D01*
X65081500Y-52108649D01*
X62133319Y-52108649D01*
X63733156Y-50508812D01*
X63738663Y-50503627D01*
X63784215Y-50463273D01*
X63818780Y-50413195D01*
X63823235Y-50407140D01*
X63860775Y-50359226D01*
X63864961Y-50349922D01*
X63876161Y-50330066D01*
X63881954Y-50321675D01*
X63903522Y-50264802D01*
X63906423Y-50257797D01*
X63931389Y-50202329D01*
X63933226Y-50192303D01*
X63939351Y-50170330D01*
X63942965Y-50160801D01*
X63950299Y-50100396D01*
X63951432Y-50092950D01*
X63962402Y-50033092D01*
X63958730Y-49972383D01*
X63958500Y-49964776D01*
X63958500Y-47305660D01*
X63978502Y-47237539D01*
X63995405Y-47216565D01*
X64956565Y-46255405D01*
X65018877Y-46221379D01*
X65045660Y-46218500D01*
X70314340Y-46218500D01*
X70382461Y-46238502D01*
X70403435Y-46255405D01*
X78024595Y-53876565D01*
X78058621Y-53938877D01*
X78061500Y-53965660D01*
X78061500Y-57138356D01*
X78041498Y-57206477D01*
X78012891Y-57237787D01*
X77846765Y-57367088D01*
X77694279Y-57532729D01*
X77694275Y-57532734D01*
X77571141Y-57721206D01*
X77480703Y-57927386D01*
X77480702Y-57927387D01*
X77425437Y-58145624D01*
X77425436Y-58145630D01*
X77425436Y-58145632D01*
X77406844Y-58370000D01*
X77424232Y-58579844D01*
X77425437Y-58594375D01*
X77480702Y-58812612D01*
X77480703Y-58812613D01*
X77571141Y-59018793D01*
X77694275Y-59207265D01*
X77694279Y-59207270D01*
X77846762Y-59372908D01*
X77885765Y-59403265D01*
X78024424Y-59511189D01*
X78057680Y-59529186D01*
X78108071Y-59579200D01*
X78123423Y-59648516D01*
X78098862Y-59715129D01*
X78057680Y-59750813D01*
X78024426Y-59768810D01*
X78024424Y-59768811D01*
X77846762Y-59907091D01*
X77694279Y-60072729D01*
X77694275Y-60072734D01*
X77571141Y-60261206D01*
X77480703Y-60467386D01*
X77480702Y-60467387D01*
X77425437Y-60685624D01*
X77425436Y-60685630D01*
X77425436Y-60685632D01*
X77406844Y-60910000D01*
X77425178Y-61131260D01*
X77425437Y-61134375D01*
X77480702Y-61352612D01*
X77480703Y-61352613D01*
X77480704Y-61352616D01*
X77571140Y-61558791D01*
X77571141Y-61558793D01*
X77694275Y-61747265D01*
X77694279Y-61747270D01*
X77846762Y-61912908D01*
X77868010Y-61929446D01*
X78024424Y-62051189D01*
X78057680Y-62069186D01*
X78108071Y-62119200D01*
X78123423Y-62188516D01*
X78098862Y-62255129D01*
X78057680Y-62290813D01*
X78024426Y-62308810D01*
X78024424Y-62308811D01*
X77846762Y-62447091D01*
X77694279Y-62612729D01*
X77694275Y-62612734D01*
X77571141Y-62801206D01*
X77480703Y-63007386D01*
X77480702Y-63007387D01*
X77425437Y-63225624D01*
X77425436Y-63225630D01*
X77425436Y-63225632D01*
X77406844Y-63450000D01*
X77424232Y-63659844D01*
X77425437Y-63674375D01*
X77480702Y-63892612D01*
X77480703Y-63892613D01*
X77480704Y-63892616D01*
X77571140Y-64098791D01*
X77571141Y-64098793D01*
X77694275Y-64287265D01*
X77694279Y-64287270D01*
X77846762Y-64452908D01*
X77881653Y-64480065D01*
X78024424Y-64591189D01*
X78058205Y-64609470D01*
X78108596Y-64659482D01*
X78123949Y-64728799D01*
X78099389Y-64795412D01*
X78058209Y-64831096D01*
X78024704Y-64849228D01*
X78024698Y-64849232D01*
X77847097Y-64987465D01*
X77694674Y-65153041D01*
X77571580Y-65341451D01*
X77481179Y-65547543D01*
X77481176Y-65547550D01*
X77433455Y-65735999D01*
X77433456Y-65736000D01*
X78338884Y-65736000D01*
X78310507Y-65780156D01*
X78270000Y-65918111D01*
X78270000Y-66061889D01*
X78310507Y-66199844D01*
X78338884Y-66244000D01*
X77433455Y-66244000D01*
X77481176Y-66432449D01*
X77481179Y-66432456D01*
X77571580Y-66638548D01*
X77694674Y-66826958D01*
X77847097Y-66992534D01*
X78024698Y-67130767D01*
X78024704Y-67130771D01*
X78058207Y-67148902D01*
X78108597Y-67198915D01*
X78123949Y-67268232D01*
X78099388Y-67334845D01*
X78058207Y-67370528D01*
X78024430Y-67388807D01*
X78024416Y-67388816D01*
X77846766Y-67527088D01*
X77846756Y-67527097D01*
X77836142Y-67538627D01*
X77775287Y-67575195D01*
X77704323Y-67573058D01*
X77654350Y-67542380D01*
X77115405Y-67003435D01*
X77081379Y-66941123D01*
X77078500Y-66914340D01*
X77078500Y-63265222D01*
X77078730Y-63257615D01*
X77082402Y-63196908D01*
X77071434Y-63137059D01*
X77070298Y-63129597D01*
X77062965Y-63069199D01*
X77062964Y-63069197D01*
X77062964Y-63069195D01*
X77059351Y-63059668D01*
X77053227Y-63037702D01*
X77051389Y-63027673D01*
X77051389Y-63027671D01*
X77026427Y-62972208D01*
X77023515Y-62965176D01*
X77001957Y-62908332D01*
X77001955Y-62908329D01*
X77001954Y-62908325D01*
X76996163Y-62899935D01*
X76984958Y-62880070D01*
X76980775Y-62870774D01*
X76955653Y-62838708D01*
X76943267Y-62822899D01*
X76938756Y-62816768D01*
X76904215Y-62766727D01*
X76904212Y-62766724D01*
X76858682Y-62726387D01*
X76853141Y-62721171D01*
X72478827Y-58346857D01*
X72473610Y-58341316D01*
X72433273Y-58295785D01*
X72433272Y-58295784D01*
X72433271Y-58295783D01*
X72383220Y-58261234D01*
X72377093Y-58256726D01*
X72329226Y-58219225D01*
X72329222Y-58219223D01*
X72319919Y-58215035D01*
X72300069Y-58203840D01*
X72291675Y-58198046D01*
X72274847Y-58191664D01*
X72234821Y-58176483D01*
X72227794Y-58173572D01*
X72172332Y-58148612D01*
X72172330Y-58148611D01*
X72172329Y-58148611D01*
X72162286Y-58146770D01*
X72140336Y-58140650D01*
X72130801Y-58137035D01*
X72130800Y-58137034D01*
X72130798Y-58137034D01*
X72130794Y-58137033D01*
X72070433Y-58129704D01*
X72062914Y-58128559D01*
X72024388Y-58121500D01*
X72003094Y-58117598D01*
X72003093Y-58117598D01*
X71986182Y-58118621D01*
X71942390Y-58121270D01*
X71934782Y-58121500D01*
X69724500Y-58121500D01*
X69656379Y-58101498D01*
X69609886Y-58047842D01*
X69598500Y-57995500D01*
X69598500Y-57931367D01*
X69598499Y-57931350D01*
X69591990Y-57870803D01*
X69591988Y-57870795D01*
X69540889Y-57733797D01*
X69540889Y-57733796D01*
X69531464Y-57721206D01*
X69467311Y-57635507D01*
X69442501Y-57568989D01*
X69457592Y-57499615D01*
X69467306Y-57484497D01*
X69540889Y-57386204D01*
X69591989Y-57249201D01*
X69593217Y-57237787D01*
X69598499Y-57188649D01*
X69598500Y-57188632D01*
X69598500Y-55391367D01*
X69598499Y-55391350D01*
X69591990Y-55330803D01*
X69591988Y-55330795D01*
X69540889Y-55193797D01*
X69540887Y-55193792D01*
X69467000Y-55095091D01*
X69442189Y-55028571D01*
X69457280Y-54959197D01*
X69467001Y-54944072D01*
X69540443Y-54845966D01*
X69540444Y-54845964D01*
X69591494Y-54709093D01*
X69597999Y-54648597D01*
X69598000Y-54648585D01*
X69598000Y-54004000D01*
X65082000Y-54004000D01*
X65082000Y-54648597D01*
X65088505Y-54709093D01*
X65139555Y-54845964D01*
X65139556Y-54845966D01*
X65212999Y-54944072D01*
X65237811Y-55010592D01*
X65222720Y-55079966D01*
X65213000Y-55095091D01*
X65139112Y-55193792D01*
X65139110Y-55193797D01*
X65088011Y-55330795D01*
X65088009Y-55330803D01*
X65081500Y-55391350D01*
X65081500Y-57188649D01*
X65088009Y-57249196D01*
X65088011Y-57249204D01*
X65139110Y-57386202D01*
X65139112Y-57386207D01*
X65212687Y-57484491D01*
X65237498Y-57551011D01*
X65222407Y-57620385D01*
X65212687Y-57635509D01*
X65139112Y-57733792D01*
X65139110Y-57733797D01*
X65088011Y-57870795D01*
X65088009Y-57870803D01*
X65081500Y-57931350D01*
X65081500Y-59728649D01*
X65088009Y-59789196D01*
X65088011Y-59789204D01*
X65139110Y-59926202D01*
X65139112Y-59926207D01*
X65212687Y-60024491D01*
X65237498Y-60091011D01*
X65222407Y-60160385D01*
X65212687Y-60175509D01*
X65139112Y-60273792D01*
X65139110Y-60273797D01*
X65088011Y-60410795D01*
X65088009Y-60410803D01*
X65081500Y-60471350D01*
X65081500Y-62268649D01*
X65088009Y-62329196D01*
X65088011Y-62329204D01*
X65139110Y-62466202D01*
X65139112Y-62466207D01*
X65212687Y-62564491D01*
X65237498Y-62631011D01*
X65222407Y-62700385D01*
X65212687Y-62715509D01*
X65139112Y-62813792D01*
X65139110Y-62813797D01*
X65088011Y-62950795D01*
X65088009Y-62950803D01*
X65081500Y-63011350D01*
X65081500Y-64808649D01*
X65088009Y-64869196D01*
X65088011Y-64869204D01*
X65139110Y-65006202D01*
X65139112Y-65006207D01*
X65212999Y-65104907D01*
X65237810Y-65171427D01*
X65222719Y-65240801D01*
X65213000Y-65255924D01*
X65139555Y-65354035D01*
X65088505Y-65490906D01*
X65082000Y-65551402D01*
X65082000Y-66196000D01*
X69598000Y-66196000D01*
X69598000Y-65551414D01*
X69597999Y-65551402D01*
X69591494Y-65490906D01*
X69540444Y-65354035D01*
X69540444Y-65354034D01*
X69467000Y-65255925D01*
X69442189Y-65189405D01*
X69457280Y-65120031D01*
X69466995Y-65104913D01*
X69489429Y-65074946D01*
X69546264Y-65032400D01*
X69617080Y-65027336D01*
X69679391Y-65061361D01*
X71334595Y-66716565D01*
X71368621Y-66778877D01*
X71371500Y-66805660D01*
X71371500Y-68184782D01*
X71371269Y-68192390D01*
X71367598Y-68253093D01*
X71372088Y-68277598D01*
X71378559Y-68312910D01*
X71379704Y-68320433D01*
X71387033Y-68380794D01*
X71387034Y-68380798D01*
X71390650Y-68390333D01*
X71396770Y-68412286D01*
X71398410Y-68421234D01*
X71398612Y-68422332D01*
X71423572Y-68477794D01*
X71426483Y-68484821D01*
X71433817Y-68504157D01*
X71448046Y-68541675D01*
X71453840Y-68550069D01*
X71465035Y-68569919D01*
X71469223Y-68579222D01*
X71469225Y-68579226D01*
X71506726Y-68627093D01*
X71511234Y-68633220D01*
X71545783Y-68683271D01*
X71591316Y-68723610D01*
X71596857Y-68728827D01*
X76961171Y-74093141D01*
X76966387Y-74098682D01*
X77006724Y-74144212D01*
X77006727Y-74144215D01*
X77056783Y-74178766D01*
X77062885Y-74183256D01*
X77110774Y-74220775D01*
X77120063Y-74224955D01*
X77139932Y-74236161D01*
X77146154Y-74240455D01*
X77148325Y-74241954D01*
X77205217Y-74263529D01*
X77212205Y-74266424D01*
X77267671Y-74291388D01*
X77277703Y-74293226D01*
X77299659Y-74299347D01*
X77309199Y-74302965D01*
X77369620Y-74310301D01*
X77377063Y-74311434D01*
X77436907Y-74322401D01*
X77497598Y-74318729D01*
X77505205Y-74318500D01*
X77541962Y-74318500D01*
X77610083Y-74338502D01*
X77647445Y-74375585D01*
X77694275Y-74447265D01*
X77694279Y-74447270D01*
X77846762Y-74612908D01*
X77901331Y-74655381D01*
X78024424Y-74751189D01*
X78057680Y-74769186D01*
X78108071Y-74819200D01*
X78123423Y-74888516D01*
X78098862Y-74955129D01*
X78057680Y-74990813D01*
X78024426Y-75008810D01*
X78024424Y-75008811D01*
X77846762Y-75147091D01*
X77694279Y-75312729D01*
X77694275Y-75312734D01*
X77647445Y-75384415D01*
X77593442Y-75430504D01*
X77541962Y-75441500D01*
X77265660Y-75441500D01*
X77197539Y-75421498D01*
X77176565Y-75404595D01*
X70278827Y-68506857D01*
X70273610Y-68501316D01*
X70252771Y-68477794D01*
X70233273Y-68455785D01*
X70233272Y-68455784D01*
X70233271Y-68455783D01*
X70183220Y-68421234D01*
X70177093Y-68416726D01*
X70129226Y-68379225D01*
X70129222Y-68379223D01*
X70119919Y-68375035D01*
X70100069Y-68363840D01*
X70091675Y-68358046D01*
X70074847Y-68351664D01*
X70034821Y-68336483D01*
X70027794Y-68333572D01*
X69972332Y-68308612D01*
X69972330Y-68308611D01*
X69972329Y-68308611D01*
X69962286Y-68306770D01*
X69940336Y-68300650D01*
X69930801Y-68297035D01*
X69930800Y-68297034D01*
X69930798Y-68297034D01*
X69930794Y-68297033D01*
X69870433Y-68289704D01*
X69862914Y-68288559D01*
X69824388Y-68281500D01*
X69803094Y-68277598D01*
X69803093Y-68277598D01*
X69752132Y-68280680D01*
X69742390Y-68281270D01*
X69734782Y-68281500D01*
X69724500Y-68281500D01*
X69656379Y-68261498D01*
X69609886Y-68207842D01*
X69598500Y-68155500D01*
X69598500Y-68091367D01*
X69598499Y-68091350D01*
X69591990Y-68030803D01*
X69591988Y-68030795D01*
X69540889Y-67893797D01*
X69540887Y-67893792D01*
X69467000Y-67795091D01*
X69442189Y-67728571D01*
X69457280Y-67659197D01*
X69467001Y-67644072D01*
X69540443Y-67545966D01*
X69540444Y-67545964D01*
X69591494Y-67409093D01*
X69597999Y-67348597D01*
X69598000Y-67348585D01*
X69598000Y-66704000D01*
X65082000Y-66704000D01*
X65082000Y-67348597D01*
X65088505Y-67409093D01*
X65139555Y-67545964D01*
X65139556Y-67545966D01*
X65212999Y-67644072D01*
X65237811Y-67710592D01*
X65222720Y-67779966D01*
X65213000Y-67795091D01*
X65139112Y-67893792D01*
X65139110Y-67893797D01*
X65088011Y-68030795D01*
X65088009Y-68030803D01*
X65081500Y-68091350D01*
X65081500Y-69888649D01*
X65088009Y-69949196D01*
X65088011Y-69949204D01*
X65139110Y-70086202D01*
X65139112Y-70086207D01*
X65212687Y-70184491D01*
X65237498Y-70251011D01*
X65222407Y-70320385D01*
X65212687Y-70335509D01*
X65139112Y-70433792D01*
X65139110Y-70433797D01*
X65088011Y-70570795D01*
X65088009Y-70570803D01*
X65081500Y-70631350D01*
X65081500Y-72428649D01*
X65088009Y-72489196D01*
X65088011Y-72489204D01*
X65139110Y-72626202D01*
X65139112Y-72626207D01*
X65212687Y-72724491D01*
X65237498Y-72791011D01*
X65222407Y-72860385D01*
X65212687Y-72875509D01*
X65139112Y-72973792D01*
X65139110Y-72973797D01*
X65088011Y-73110795D01*
X65088009Y-73110803D01*
X65081500Y-73171350D01*
X65081500Y-74968649D01*
X65088009Y-75029196D01*
X65088011Y-75029204D01*
X65139110Y-75166202D01*
X65139112Y-75166207D01*
X65212687Y-75264491D01*
X65237498Y-75331011D01*
X65222407Y-75400385D01*
X65212687Y-75415509D01*
X65139112Y-75513792D01*
X65139110Y-75513797D01*
X65088011Y-75650795D01*
X65088009Y-75650803D01*
X65081500Y-75711350D01*
X65081500Y-77508649D01*
X65088009Y-77569196D01*
X65088011Y-77569204D01*
X65139110Y-77706202D01*
X65139112Y-77706207D01*
X65212999Y-77804907D01*
X65237810Y-77871427D01*
X65222719Y-77940801D01*
X65213000Y-77955924D01*
X65139555Y-78054035D01*
X65088505Y-78190906D01*
X65082000Y-78251402D01*
X65082000Y-78896000D01*
X69598000Y-78896000D01*
X69598000Y-78251414D01*
X69597999Y-78251402D01*
X69591494Y-78190906D01*
X69540444Y-78054035D01*
X69540444Y-78054034D01*
X69467000Y-77955925D01*
X69442189Y-77889405D01*
X69457280Y-77820031D01*
X69466998Y-77804909D01*
X69540889Y-77706204D01*
X69591989Y-77569201D01*
X69595410Y-77537382D01*
X69622578Y-77471789D01*
X69680895Y-77431297D01*
X69751846Y-77428761D01*
X69809783Y-77461753D01*
X76601171Y-84253141D01*
X76606387Y-84258682D01*
X76646724Y-84304212D01*
X76646727Y-84304215D01*
X76696768Y-84338756D01*
X76702899Y-84343267D01*
X76750774Y-84380775D01*
X76760070Y-84384958D01*
X76779935Y-84396163D01*
X76788320Y-84401951D01*
X76788322Y-84401952D01*
X76788325Y-84401954D01*
X76788329Y-84401955D01*
X76788332Y-84401957D01*
X76845176Y-84423515D01*
X76852208Y-84426427D01*
X76907671Y-84451389D01*
X76917704Y-84453227D01*
X76939668Y-84459351D01*
X76949195Y-84462964D01*
X76949197Y-84462964D01*
X76949199Y-84462965D01*
X77009605Y-84470299D01*
X77017042Y-84471431D01*
X77076907Y-84482402D01*
X77137610Y-84478730D01*
X77145218Y-84478500D01*
X77541962Y-84478500D01*
X77610083Y-84498502D01*
X77647445Y-84535585D01*
X77694275Y-84607265D01*
X77694279Y-84607270D01*
X77846762Y-84772908D01*
X77901331Y-84815381D01*
X78024424Y-84911189D01*
X78057680Y-84929186D01*
X78108071Y-84979200D01*
X78123423Y-85048516D01*
X78098862Y-85115129D01*
X78057680Y-85150813D01*
X78024426Y-85168810D01*
X78024424Y-85168811D01*
X77846762Y-85307091D01*
X77694279Y-85472729D01*
X77694275Y-85472734D01*
X77647445Y-85544415D01*
X77593442Y-85590504D01*
X77541962Y-85601500D01*
X75565660Y-85601500D01*
X75497539Y-85581498D01*
X75476565Y-85564595D01*
X73658827Y-83746857D01*
X73653610Y-83741316D01*
X73620453Y-83703890D01*
X73613273Y-83695785D01*
X73613272Y-83695784D01*
X73613271Y-83695783D01*
X73563220Y-83661234D01*
X73557093Y-83656726D01*
X73509226Y-83619225D01*
X73509222Y-83619223D01*
X73499919Y-83615035D01*
X73480069Y-83603840D01*
X73471675Y-83598046D01*
X73454847Y-83591664D01*
X73414821Y-83576483D01*
X73407794Y-83573572D01*
X73352332Y-83548612D01*
X73352330Y-83548611D01*
X73352329Y-83548611D01*
X73342286Y-83546770D01*
X73320336Y-83540650D01*
X73310801Y-83537035D01*
X73310800Y-83537034D01*
X73310798Y-83537034D01*
X73310794Y-83537033D01*
X73250433Y-83529704D01*
X73242914Y-83528559D01*
X73204388Y-83521500D01*
X73183094Y-83517598D01*
X73183093Y-83517598D01*
X73132132Y-83520680D01*
X73122390Y-83521270D01*
X73114782Y-83521500D01*
X69724500Y-83521500D01*
X69656379Y-83501498D01*
X69609886Y-83447842D01*
X69598500Y-83395500D01*
X69598500Y-83331367D01*
X69598499Y-83331350D01*
X69591990Y-83270803D01*
X69591988Y-83270795D01*
X69540889Y-83133797D01*
X69540889Y-83133796D01*
X69511686Y-83094786D01*
X69467311Y-83035507D01*
X69442501Y-82968989D01*
X69457592Y-82899615D01*
X69467306Y-82884497D01*
X69540889Y-82786204D01*
X69591989Y-82649201D01*
X69592082Y-82648343D01*
X69598499Y-82588649D01*
X69598500Y-82588632D01*
X69598500Y-80791367D01*
X69598499Y-80791350D01*
X69591990Y-80730803D01*
X69591988Y-80730795D01*
X69540889Y-80593797D01*
X69540887Y-80593792D01*
X69467000Y-80495091D01*
X69442189Y-80428571D01*
X69457280Y-80359197D01*
X69467001Y-80344072D01*
X69540443Y-80245966D01*
X69540444Y-80245964D01*
X69591494Y-80109093D01*
X69597999Y-80048597D01*
X69598000Y-80048585D01*
X69598000Y-79404000D01*
X65082000Y-79404000D01*
X65082000Y-80048597D01*
X65088505Y-80109093D01*
X65139555Y-80245964D01*
X65139556Y-80245966D01*
X65212999Y-80344072D01*
X65237811Y-80410592D01*
X65222720Y-80479966D01*
X65213000Y-80495091D01*
X65139112Y-80593792D01*
X65139110Y-80593797D01*
X65088011Y-80730795D01*
X65088009Y-80730803D01*
X65081500Y-80791350D01*
X65081500Y-82588649D01*
X65088009Y-82649196D01*
X65088011Y-82649204D01*
X65139110Y-82786202D01*
X65139112Y-82786207D01*
X65212687Y-82884491D01*
X65237498Y-82951011D01*
X65222407Y-83020385D01*
X65212687Y-83035509D01*
X65139112Y-83133792D01*
X65139110Y-83133797D01*
X65088011Y-83270795D01*
X65088009Y-83270803D01*
X65081500Y-83331350D01*
X65081500Y-85128649D01*
X65088009Y-85189196D01*
X65088011Y-85189204D01*
X65139110Y-85326202D01*
X65139112Y-85326207D01*
X65212687Y-85424491D01*
X65237498Y-85491011D01*
X65222407Y-85560385D01*
X65212687Y-85575509D01*
X65139112Y-85673792D01*
X65139110Y-85673797D01*
X65088011Y-85810795D01*
X65088009Y-85810803D01*
X65081500Y-85871350D01*
X65081500Y-87668649D01*
X65088009Y-87729196D01*
X65088011Y-87729204D01*
X65139110Y-87866202D01*
X65139112Y-87866207D01*
X65212687Y-87964491D01*
X65237498Y-88031011D01*
X65222407Y-88100385D01*
X65212687Y-88115509D01*
X65139112Y-88213792D01*
X65139110Y-88213797D01*
X65088011Y-88350795D01*
X65088009Y-88350803D01*
X65081500Y-88411350D01*
X65081500Y-90208649D01*
X65088009Y-90269196D01*
X65088011Y-90269204D01*
X65139110Y-90406202D01*
X65139112Y-90406207D01*
X65212999Y-90504907D01*
X65237810Y-90571427D01*
X65222719Y-90640801D01*
X65213000Y-90655924D01*
X65139555Y-90754035D01*
X65088505Y-90890906D01*
X65082000Y-90951402D01*
X65082000Y-91596000D01*
X69598000Y-91596000D01*
X69598000Y-90951414D01*
X69597999Y-90951402D01*
X69591494Y-90890906D01*
X69540444Y-90754035D01*
X69540444Y-90754034D01*
X69467000Y-90655925D01*
X69442189Y-90589405D01*
X69457280Y-90520031D01*
X69466998Y-90504909D01*
X69540889Y-90406204D01*
X69591989Y-90269201D01*
X69594182Y-90248810D01*
X69598499Y-90208649D01*
X69598500Y-90208632D01*
X69598500Y-88411367D01*
X69598499Y-88411350D01*
X69591990Y-88350803D01*
X69591988Y-88350795D01*
X69540889Y-88213797D01*
X69540889Y-88213796D01*
X69511686Y-88174786D01*
X69467311Y-88115507D01*
X69442501Y-88048989D01*
X69457592Y-87979615D01*
X69467306Y-87964497D01*
X69540889Y-87866204D01*
X69591989Y-87729201D01*
X69594182Y-87708810D01*
X69598499Y-87668649D01*
X69598500Y-87668632D01*
X69598500Y-87604500D01*
X69618502Y-87536379D01*
X69672158Y-87489886D01*
X69724500Y-87478500D01*
X71354340Y-87478500D01*
X71422461Y-87498502D01*
X71443435Y-87515405D01*
X75801171Y-91873141D01*
X75806387Y-91878682D01*
X75846724Y-91924212D01*
X75846727Y-91924215D01*
X75896804Y-91958781D01*
X75902895Y-91963263D01*
X75950775Y-92000775D01*
X75960070Y-92004958D01*
X75979933Y-92016161D01*
X75988325Y-92021954D01*
X76045192Y-92043520D01*
X76052182Y-92046414D01*
X76107671Y-92071389D01*
X76117704Y-92073227D01*
X76139668Y-92079351D01*
X76149195Y-92082964D01*
X76149197Y-92082964D01*
X76149199Y-92082965D01*
X76209597Y-92090298D01*
X76217059Y-92091434D01*
X76276908Y-92102402D01*
X76337616Y-92098729D01*
X76345222Y-92098500D01*
X77541962Y-92098500D01*
X77610083Y-92118502D01*
X77647445Y-92155585D01*
X77694275Y-92227265D01*
X77694279Y-92227270D01*
X77846762Y-92392908D01*
X77901331Y-92435381D01*
X78024424Y-92531189D01*
X78057680Y-92549186D01*
X78108071Y-92599200D01*
X78123423Y-92668516D01*
X78098862Y-92735129D01*
X78057680Y-92770813D01*
X78024426Y-92788810D01*
X78024424Y-92788811D01*
X77846762Y-92927091D01*
X77694279Y-93092729D01*
X77694275Y-93092734D01*
X77647445Y-93164415D01*
X77593442Y-93210504D01*
X77541962Y-93221500D01*
X76225222Y-93221500D01*
X76217616Y-93221270D01*
X76215540Y-93221144D01*
X76156906Y-93217597D01*
X76156905Y-93217598D01*
X76097089Y-93228559D01*
X76089567Y-93229704D01*
X76029202Y-93237033D01*
X76029195Y-93237035D01*
X76019661Y-93240651D01*
X75997710Y-93246770D01*
X75987678Y-93248609D01*
X75987664Y-93248613D01*
X75932213Y-93273569D01*
X75925187Y-93276480D01*
X75901405Y-93285500D01*
X75868325Y-93298046D01*
X75868324Y-93298046D01*
X75868323Y-93298047D01*
X75859929Y-93303841D01*
X75840074Y-93315039D01*
X75830777Y-93319223D01*
X75830775Y-93319224D01*
X75782911Y-93356722D01*
X75776786Y-93361229D01*
X75726727Y-93395783D01*
X75726727Y-93395784D01*
X75686388Y-93441316D01*
X75681172Y-93446856D01*
X72943435Y-96184595D01*
X72881123Y-96218620D01*
X72854340Y-96221500D01*
X69724500Y-96221500D01*
X69656379Y-96201498D01*
X69609886Y-96147842D01*
X69598500Y-96095500D01*
X69598500Y-96031367D01*
X69598499Y-96031350D01*
X69591990Y-95970803D01*
X69591988Y-95970795D01*
X69540889Y-95833797D01*
X69540889Y-95833796D01*
X69511686Y-95794786D01*
X69467311Y-95735507D01*
X69442501Y-95668989D01*
X69457592Y-95599615D01*
X69467306Y-95584497D01*
X69540889Y-95486204D01*
X69591989Y-95349201D01*
X69594146Y-95329145D01*
X69598499Y-95288649D01*
X69598500Y-95288632D01*
X69598500Y-93491367D01*
X69598499Y-93491350D01*
X69591990Y-93430803D01*
X69591988Y-93430795D01*
X69557317Y-93337842D01*
X69540889Y-93293796D01*
X69540888Y-93293794D01*
X69540887Y-93293792D01*
X69467000Y-93195091D01*
X69442189Y-93128571D01*
X69457280Y-93059197D01*
X69467001Y-93044072D01*
X69540443Y-92945966D01*
X69540444Y-92945964D01*
X69591494Y-92809093D01*
X69597999Y-92748597D01*
X69598000Y-92748585D01*
X69598000Y-92104000D01*
X65082000Y-92104000D01*
X65082000Y-92748597D01*
X65088505Y-92809093D01*
X65139555Y-92945964D01*
X65139556Y-92945966D01*
X65212999Y-93044072D01*
X65237811Y-93110592D01*
X65222720Y-93179966D01*
X65213000Y-93195091D01*
X65139112Y-93293792D01*
X65139110Y-93293797D01*
X65088011Y-93430795D01*
X65088009Y-93430803D01*
X65081500Y-93491350D01*
X65081500Y-95288649D01*
X65088009Y-95349196D01*
X65088011Y-95349204D01*
X65139110Y-95486202D01*
X65139112Y-95486207D01*
X65212687Y-95584491D01*
X65237498Y-95651011D01*
X65222407Y-95720385D01*
X65212687Y-95735509D01*
X65139112Y-95833792D01*
X65139110Y-95833797D01*
X65088011Y-95970795D01*
X65088009Y-95970803D01*
X65081500Y-96031350D01*
X65081500Y-97828649D01*
X65088009Y-97889196D01*
X65088011Y-97889204D01*
X65139110Y-98026202D01*
X65139112Y-98026207D01*
X65226738Y-98143261D01*
X65343792Y-98230887D01*
X65343794Y-98230888D01*
X65343796Y-98230889D01*
X65402875Y-98252924D01*
X65480795Y-98281988D01*
X65480803Y-98281990D01*
X65541350Y-98288499D01*
X65541355Y-98288499D01*
X65541362Y-98288500D01*
X65541368Y-98288500D01*
X69138632Y-98288500D01*
X69138638Y-98288500D01*
X69138645Y-98288499D01*
X69138649Y-98288499D01*
X69199196Y-98281990D01*
X69199199Y-98281989D01*
X69199201Y-98281989D01*
X69336204Y-98230889D01*
X69453261Y-98143261D01*
X69540889Y-98026204D01*
X69591989Y-97889201D01*
X69597758Y-97835545D01*
X69598499Y-97828649D01*
X69598500Y-97828632D01*
X69598500Y-97764500D01*
X69618502Y-97696379D01*
X69672158Y-97649886D01*
X69724500Y-97638500D01*
X73174782Y-97638500D01*
X73182390Y-97638730D01*
X73243093Y-97642402D01*
X73302951Y-97631432D01*
X73310398Y-97630299D01*
X73370801Y-97622965D01*
X73380330Y-97619350D01*
X73402304Y-97613226D01*
X73412329Y-97611389D01*
X73467797Y-97586423D01*
X73474802Y-97583522D01*
X73531675Y-97561954D01*
X73540066Y-97556161D01*
X73559922Y-97544961D01*
X73569226Y-97540775D01*
X73617140Y-97503235D01*
X73623195Y-97498780D01*
X73673273Y-97464215D01*
X73713627Y-97418663D01*
X73718812Y-97413156D01*
X76456565Y-94675405D01*
X76518877Y-94641379D01*
X76545660Y-94638500D01*
X77541962Y-94638500D01*
X77610083Y-94658502D01*
X77647445Y-94695585D01*
X77694275Y-94767265D01*
X77694279Y-94767270D01*
X77846762Y-94932908D01*
X77901331Y-94975381D01*
X78024424Y-95071189D01*
X78048038Y-95083968D01*
X78057680Y-95089186D01*
X78108071Y-95139200D01*
X78123423Y-95208516D01*
X78098862Y-95275129D01*
X78057680Y-95310813D01*
X78024426Y-95328810D01*
X78024424Y-95328811D01*
X77846762Y-95467091D01*
X77694279Y-95632729D01*
X77694275Y-95632734D01*
X77571141Y-95821206D01*
X77480703Y-96027386D01*
X77480702Y-96027387D01*
X77425437Y-96245624D01*
X77425436Y-96245630D01*
X77425436Y-96245632D01*
X77406844Y-96470000D01*
X77424232Y-96679844D01*
X77425437Y-96694375D01*
X77480702Y-96912612D01*
X77480703Y-96912613D01*
X77480704Y-96912616D01*
X77571140Y-97118791D01*
X77571141Y-97118793D01*
X77694275Y-97307265D01*
X77694279Y-97307270D01*
X77846762Y-97472908D01*
X77885765Y-97503265D01*
X78024424Y-97611189D01*
X78222426Y-97718342D01*
X78222427Y-97718342D01*
X78222428Y-97718343D01*
X78334227Y-97756723D01*
X78435365Y-97791444D01*
X78657431Y-97828500D01*
X78657435Y-97828500D01*
X78882565Y-97828500D01*
X78882569Y-97828500D01*
X79104635Y-97791444D01*
X79317574Y-97718342D01*
X79515576Y-97611189D01*
X79693240Y-97472906D01*
X79845722Y-97307268D01*
X79934816Y-97170898D01*
X79988819Y-97124810D01*
X80059167Y-97115235D01*
X80123524Y-97145212D01*
X80145782Y-97170898D01*
X80234674Y-97306958D01*
X80387097Y-97472534D01*
X80564698Y-97610767D01*
X80564699Y-97610768D01*
X80762628Y-97717882D01*
X80762630Y-97717883D01*
X80975483Y-97790955D01*
X80975492Y-97790957D01*
X81056000Y-97804391D01*
X81056000Y-96903674D01*
X81167685Y-96954680D01*
X81274237Y-96970000D01*
X81345763Y-96970000D01*
X81452315Y-96954680D01*
X81564000Y-96903674D01*
X81564000Y-97804390D01*
X81644507Y-97790957D01*
X81644516Y-97790955D01*
X81857369Y-97717883D01*
X81857371Y-97717882D01*
X82055300Y-97610768D01*
X82055301Y-97610767D01*
X82232902Y-97472534D01*
X82385325Y-97306958D01*
X82508419Y-97118548D01*
X82598820Y-96912456D01*
X82598823Y-96912449D01*
X82646544Y-96724000D01*
X81741116Y-96724000D01*
X81769493Y-96679844D01*
X81810000Y-96541889D01*
X81810000Y-96398111D01*
X81769493Y-96260156D01*
X81741116Y-96216000D01*
X82646544Y-96216000D01*
X82646544Y-96215999D01*
X82598823Y-96027550D01*
X82598820Y-96027543D01*
X82508419Y-95821451D01*
X82385325Y-95633041D01*
X82232902Y-95467465D01*
X82055301Y-95329232D01*
X82055300Y-95329231D01*
X82021267Y-95310814D01*
X81970876Y-95260801D01*
X81955524Y-95191484D01*
X81980085Y-95124871D01*
X82021267Y-95089186D01*
X82055300Y-95070768D01*
X82055301Y-95070767D01*
X82232902Y-94932534D01*
X82385325Y-94766958D01*
X82508419Y-94578548D01*
X82598820Y-94372456D01*
X82598823Y-94372449D01*
X82646544Y-94184000D01*
X81741116Y-94184000D01*
X81769493Y-94139844D01*
X81810000Y-94001889D01*
X81810000Y-93858111D01*
X81769493Y-93720156D01*
X81741116Y-93676000D01*
X82646544Y-93676000D01*
X82646544Y-93675999D01*
X82598823Y-93487550D01*
X82598820Y-93487543D01*
X82508419Y-93281451D01*
X82385325Y-93093041D01*
X82232902Y-92927465D01*
X82055301Y-92789232D01*
X82055300Y-92789231D01*
X82021267Y-92770814D01*
X81970876Y-92720801D01*
X81955524Y-92651484D01*
X81980085Y-92584871D01*
X82021267Y-92549186D01*
X82055300Y-92530768D01*
X82055301Y-92530767D01*
X82232902Y-92392534D01*
X82385325Y-92226958D01*
X82508419Y-92038548D01*
X82598820Y-91832456D01*
X82598823Y-91832449D01*
X82646544Y-91644000D01*
X81741116Y-91644000D01*
X81769493Y-91599844D01*
X81810000Y-91461889D01*
X81810000Y-91318111D01*
X81769493Y-91180156D01*
X81741116Y-91136000D01*
X82646544Y-91136000D01*
X82646544Y-91135999D01*
X82598823Y-90947550D01*
X82598820Y-90947543D01*
X82508419Y-90741451D01*
X82385325Y-90553041D01*
X82232902Y-90387465D01*
X82055301Y-90249232D01*
X82055300Y-90249231D01*
X82021267Y-90230814D01*
X81970876Y-90180801D01*
X81955524Y-90111484D01*
X81980085Y-90044871D01*
X82021267Y-90009186D01*
X82055300Y-89990768D01*
X82055301Y-89990767D01*
X82232902Y-89852534D01*
X82385325Y-89686958D01*
X82508419Y-89498548D01*
X82598820Y-89292456D01*
X82598823Y-89292449D01*
X82646544Y-89104000D01*
X81741116Y-89104000D01*
X81769493Y-89059844D01*
X81810000Y-88921889D01*
X81810000Y-88778111D01*
X81769493Y-88640156D01*
X81741116Y-88596000D01*
X82646544Y-88596000D01*
X82646544Y-88595999D01*
X82598823Y-88407550D01*
X82598820Y-88407543D01*
X82508419Y-88201451D01*
X82385325Y-88013041D01*
X82232902Y-87847465D01*
X82055301Y-87709232D01*
X82055300Y-87709231D01*
X82021267Y-87690814D01*
X81970876Y-87640801D01*
X81955524Y-87571484D01*
X81980085Y-87504871D01*
X82021267Y-87469186D01*
X82055300Y-87450768D01*
X82055301Y-87450767D01*
X82232902Y-87312534D01*
X82385325Y-87146958D01*
X82508419Y-86958548D01*
X82598820Y-86752456D01*
X82598823Y-86752449D01*
X82646544Y-86564000D01*
X81741116Y-86564000D01*
X81769493Y-86519844D01*
X81810000Y-86381889D01*
X81810000Y-86238111D01*
X81769493Y-86100156D01*
X81741116Y-86056000D01*
X82646544Y-86056000D01*
X82646544Y-86055999D01*
X82598823Y-85867550D01*
X82598820Y-85867543D01*
X82508419Y-85661451D01*
X82385325Y-85473041D01*
X82232902Y-85307465D01*
X82055301Y-85169232D01*
X82055300Y-85169231D01*
X82021267Y-85150814D01*
X81970876Y-85100801D01*
X81955524Y-85031484D01*
X81980085Y-84964871D01*
X82021267Y-84929186D01*
X82055300Y-84910768D01*
X82055301Y-84910767D01*
X82232902Y-84772534D01*
X82385325Y-84606958D01*
X82508419Y-84418548D01*
X82598820Y-84212456D01*
X82598823Y-84212449D01*
X82646544Y-84024000D01*
X81741116Y-84024000D01*
X81769493Y-83979844D01*
X81810000Y-83841889D01*
X81810000Y-83698111D01*
X81769493Y-83560156D01*
X81741116Y-83516000D01*
X82646544Y-83516000D01*
X82646544Y-83515999D01*
X82598823Y-83327550D01*
X82598820Y-83327543D01*
X82508419Y-83121451D01*
X82385325Y-82933041D01*
X82232902Y-82767465D01*
X82055301Y-82629232D01*
X82055300Y-82629231D01*
X82021267Y-82610814D01*
X81970876Y-82560801D01*
X81955524Y-82491484D01*
X81980085Y-82424871D01*
X82021267Y-82389186D01*
X82055300Y-82370768D01*
X82055301Y-82370767D01*
X82232902Y-82232534D01*
X82385325Y-82066958D01*
X82508419Y-81878548D01*
X82598820Y-81672456D01*
X82598823Y-81672449D01*
X82646544Y-81484000D01*
X81741116Y-81484000D01*
X81769493Y-81439844D01*
X81810000Y-81301889D01*
X81810000Y-81158111D01*
X81769493Y-81020156D01*
X81741116Y-80976000D01*
X82646544Y-80976000D01*
X82646544Y-80975999D01*
X82598823Y-80787550D01*
X82598820Y-80787543D01*
X82508419Y-80581451D01*
X82385325Y-80393041D01*
X82232902Y-80227465D01*
X82055301Y-80089232D01*
X82055300Y-80089231D01*
X82021267Y-80070814D01*
X81970876Y-80020801D01*
X81955524Y-79951484D01*
X81980085Y-79884871D01*
X82021267Y-79849186D01*
X82055300Y-79830768D01*
X82055301Y-79830767D01*
X82232902Y-79692534D01*
X82385325Y-79526958D01*
X82508419Y-79338548D01*
X82598820Y-79132456D01*
X82598823Y-79132449D01*
X82646544Y-78944000D01*
X81741116Y-78944000D01*
X81769493Y-78899844D01*
X81810000Y-78761889D01*
X81810000Y-78618111D01*
X81769493Y-78480156D01*
X81741116Y-78436000D01*
X82646544Y-78436000D01*
X82646544Y-78435999D01*
X82598823Y-78247550D01*
X82598820Y-78247543D01*
X82508419Y-78041451D01*
X82385325Y-77853041D01*
X82232902Y-77687465D01*
X82055301Y-77549232D01*
X82055300Y-77549231D01*
X82021267Y-77530814D01*
X81970876Y-77480801D01*
X81955524Y-77411484D01*
X81980085Y-77344871D01*
X82021267Y-77309186D01*
X82055300Y-77290768D01*
X82055301Y-77290767D01*
X82232902Y-77152534D01*
X82385325Y-76986958D01*
X82508419Y-76798548D01*
X82598820Y-76592456D01*
X82598823Y-76592449D01*
X82646544Y-76404000D01*
X81741116Y-76404000D01*
X81769493Y-76359844D01*
X81810000Y-76221889D01*
X81810000Y-76078111D01*
X81769493Y-75940156D01*
X81741116Y-75896000D01*
X82646544Y-75896000D01*
X82646544Y-75895999D01*
X82598823Y-75707550D01*
X82598820Y-75707543D01*
X82508419Y-75501451D01*
X82385325Y-75313041D01*
X82232902Y-75147465D01*
X82055301Y-75009232D01*
X82055300Y-75009231D01*
X82021267Y-74990814D01*
X81970876Y-74940801D01*
X81955524Y-74871484D01*
X81980085Y-74804871D01*
X82021267Y-74769186D01*
X82055300Y-74750768D01*
X82055301Y-74750767D01*
X82232902Y-74612534D01*
X82385325Y-74446958D01*
X82508419Y-74258548D01*
X82598820Y-74052456D01*
X82598823Y-74052449D01*
X82646544Y-73864000D01*
X81741116Y-73864000D01*
X81769493Y-73819844D01*
X81810000Y-73681889D01*
X81810000Y-73538111D01*
X81769493Y-73400156D01*
X81741116Y-73356000D01*
X82646544Y-73356000D01*
X82646544Y-73355999D01*
X82598823Y-73167550D01*
X82598820Y-73167543D01*
X82508419Y-72961451D01*
X82385325Y-72773041D01*
X82232902Y-72607465D01*
X82055301Y-72469232D01*
X82055300Y-72469231D01*
X82021267Y-72450814D01*
X81970876Y-72400801D01*
X81955524Y-72331484D01*
X81980085Y-72264871D01*
X82021267Y-72229186D01*
X82055300Y-72210768D01*
X82055301Y-72210767D01*
X82232902Y-72072534D01*
X82385325Y-71906958D01*
X82508419Y-71718548D01*
X82598820Y-71512456D01*
X82598823Y-71512449D01*
X82646544Y-71324000D01*
X81741116Y-71324000D01*
X81769493Y-71279844D01*
X81810000Y-71141889D01*
X81810000Y-70998111D01*
X81769493Y-70860156D01*
X81741116Y-70816000D01*
X82646544Y-70816000D01*
X82646544Y-70815999D01*
X82598823Y-70627550D01*
X82598820Y-70627543D01*
X82508419Y-70421451D01*
X82385325Y-70233041D01*
X82232902Y-70067465D01*
X82055301Y-69929232D01*
X82055300Y-69929231D01*
X82021267Y-69910814D01*
X81970876Y-69860801D01*
X81955524Y-69791484D01*
X81980085Y-69724871D01*
X82021267Y-69689186D01*
X82055300Y-69670768D01*
X82055301Y-69670767D01*
X82232902Y-69532534D01*
X82385325Y-69366958D01*
X82508419Y-69178548D01*
X82598820Y-68972456D01*
X82598823Y-68972449D01*
X82646544Y-68784000D01*
X81741116Y-68784000D01*
X81769493Y-68739844D01*
X81810000Y-68601889D01*
X81810000Y-68458111D01*
X81769493Y-68320156D01*
X81741116Y-68276000D01*
X82646544Y-68276000D01*
X82646544Y-68275999D01*
X82598823Y-68087550D01*
X82598820Y-68087543D01*
X82508419Y-67881451D01*
X82385325Y-67693041D01*
X82232902Y-67527465D01*
X82055301Y-67389232D01*
X82055300Y-67389231D01*
X82021267Y-67370814D01*
X81970876Y-67320801D01*
X81955524Y-67251484D01*
X81980085Y-67184871D01*
X82021267Y-67149186D01*
X82055300Y-67130768D01*
X82055301Y-67130767D01*
X82232902Y-66992534D01*
X82385325Y-66826958D01*
X82508419Y-66638548D01*
X82598820Y-66432456D01*
X82598823Y-66432449D01*
X82646544Y-66244000D01*
X81741116Y-66244000D01*
X81769493Y-66199844D01*
X81810000Y-66061889D01*
X81810000Y-65918111D01*
X81769493Y-65780156D01*
X81741116Y-65736000D01*
X82646544Y-65736000D01*
X82646544Y-65735999D01*
X82598823Y-65547550D01*
X82598820Y-65547543D01*
X82508419Y-65341451D01*
X82385325Y-65153041D01*
X82232902Y-64987465D01*
X82055301Y-64849232D01*
X82055300Y-64849231D01*
X82021267Y-64830814D01*
X81970876Y-64780801D01*
X81955524Y-64711484D01*
X81980085Y-64644871D01*
X82021267Y-64609186D01*
X82055300Y-64590768D01*
X82055301Y-64590767D01*
X82232902Y-64452534D01*
X82385325Y-64286958D01*
X82508419Y-64098548D01*
X82598820Y-63892456D01*
X82598823Y-63892449D01*
X82646544Y-63704000D01*
X81741116Y-63704000D01*
X81769493Y-63659844D01*
X81810000Y-63521889D01*
X81810000Y-63378111D01*
X81769493Y-63240156D01*
X81741116Y-63196000D01*
X82646544Y-63196000D01*
X82646544Y-63195999D01*
X82598823Y-63007550D01*
X82598820Y-63007543D01*
X82508419Y-62801451D01*
X82385325Y-62613041D01*
X82232902Y-62447465D01*
X82055301Y-62309232D01*
X82055300Y-62309231D01*
X82021267Y-62290814D01*
X81970876Y-62240801D01*
X81955524Y-62171484D01*
X81980085Y-62104871D01*
X82021267Y-62069186D01*
X82055300Y-62050768D01*
X82055301Y-62050767D01*
X82232902Y-61912534D01*
X82385325Y-61746958D01*
X82508419Y-61558548D01*
X82598820Y-61352456D01*
X82598823Y-61352449D01*
X82646544Y-61164000D01*
X81741116Y-61164000D01*
X81769493Y-61119844D01*
X81810000Y-60981889D01*
X81810000Y-60838111D01*
X81769493Y-60700156D01*
X81741116Y-60656000D01*
X82646544Y-60656000D01*
X82646544Y-60655999D01*
X82598823Y-60467550D01*
X82598820Y-60467543D01*
X82508419Y-60261451D01*
X82385325Y-60073041D01*
X82241652Y-59916969D01*
X82210232Y-59853304D01*
X82218219Y-59782758D01*
X82263079Y-59727729D01*
X82290322Y-59713576D01*
X82405965Y-59670444D01*
X82522904Y-59582904D01*
X82610444Y-59465965D01*
X82610444Y-59465964D01*
X82661494Y-59329093D01*
X82667999Y-59268597D01*
X82668000Y-59268585D01*
X82668000Y-58624000D01*
X81741116Y-58624000D01*
X81769493Y-58579844D01*
X81810000Y-58441889D01*
X81810000Y-58298111D01*
X81769493Y-58160156D01*
X81741116Y-58116000D01*
X82668000Y-58116000D01*
X82668000Y-57471414D01*
X82667999Y-57471402D01*
X82661494Y-57410906D01*
X82610444Y-57274035D01*
X82610444Y-57274034D01*
X82522904Y-57157095D01*
X82405965Y-57069555D01*
X82269093Y-57018505D01*
X82208597Y-57012000D01*
X81564000Y-57012000D01*
X81564000Y-57936325D01*
X81452315Y-57885320D01*
X81345763Y-57870000D01*
X81274237Y-57870000D01*
X81167685Y-57885320D01*
X81056000Y-57936325D01*
X81056000Y-57012000D01*
X80411402Y-57012000D01*
X80350906Y-57018505D01*
X80214035Y-57069555D01*
X80214034Y-57069555D01*
X80097095Y-57157095D01*
X80009555Y-57274034D01*
X80009553Y-57274039D01*
X79965380Y-57392470D01*
X79922833Y-57449306D01*
X79856313Y-57474116D01*
X79786939Y-57459024D01*
X79754626Y-57433777D01*
X79693240Y-57367094D01*
X79693238Y-57367092D01*
X79693233Y-57367087D01*
X79527109Y-57237787D01*
X79485638Y-57180162D01*
X79478500Y-57138356D01*
X79478500Y-53645217D01*
X79478730Y-53637609D01*
X79482402Y-53576908D01*
X79471434Y-53517059D01*
X79470298Y-53509597D01*
X79462965Y-53449199D01*
X79462964Y-53449197D01*
X79462964Y-53449195D01*
X79459351Y-53439668D01*
X79453227Y-53417702D01*
X79451389Y-53407673D01*
X79451389Y-53407671D01*
X79426427Y-53352208D01*
X79423515Y-53345176D01*
X79401957Y-53288332D01*
X79401955Y-53288329D01*
X79401954Y-53288325D01*
X79396163Y-53279935D01*
X79384958Y-53260070D01*
X79380775Y-53250774D01*
X79343267Y-53202899D01*
X79338756Y-53196768D01*
X79304215Y-53146727D01*
X79304212Y-53146724D01*
X79258682Y-53106387D01*
X79253141Y-53101171D01*
X71178827Y-45026857D01*
X71173610Y-45021316D01*
X71133271Y-44975783D01*
X71083220Y-44941234D01*
X71077093Y-44936726D01*
X71029226Y-44899225D01*
X71029222Y-44899223D01*
X71019919Y-44895035D01*
X71000069Y-44883840D01*
X70991675Y-44878046D01*
X70974847Y-44871664D01*
X70934821Y-44856483D01*
X70927794Y-44853572D01*
X70872332Y-44828612D01*
X70872330Y-44828611D01*
X70872329Y-44828611D01*
X70862286Y-44826770D01*
X70840336Y-44820650D01*
X70830801Y-44817035D01*
X70830800Y-44817034D01*
X70830798Y-44817034D01*
X70830794Y-44817033D01*
X70770433Y-44809704D01*
X70762914Y-44808559D01*
X70724388Y-44801500D01*
X70703094Y-44797598D01*
X70703093Y-44797598D01*
X70652132Y-44800680D01*
X70642390Y-44801270D01*
X70634782Y-44801500D01*
X64725222Y-44801500D01*
X64717616Y-44801270D01*
X64715540Y-44801144D01*
X64656906Y-44797597D01*
X64656905Y-44797598D01*
X64597089Y-44808559D01*
X64589567Y-44809704D01*
X64529202Y-44817033D01*
X64529195Y-44817035D01*
X64519661Y-44820651D01*
X64497710Y-44826770D01*
X64487678Y-44828609D01*
X64487664Y-44828613D01*
X64432213Y-44853569D01*
X64425187Y-44856480D01*
X64383885Y-44872144D01*
X64368325Y-44878046D01*
X64368324Y-44878046D01*
X64368323Y-44878047D01*
X64359929Y-44883841D01*
X64340074Y-44895039D01*
X64330777Y-44899223D01*
X64330775Y-44899224D01*
X64282911Y-44936722D01*
X64276786Y-44941229D01*
X64226727Y-44975783D01*
X64226727Y-44975784D01*
X64186388Y-45021316D01*
X64181172Y-45026856D01*
X62766856Y-46441172D01*
X62761316Y-46446388D01*
X62715784Y-46486726D01*
X62681237Y-46536774D01*
X62676731Y-46542898D01*
X62639228Y-46590769D01*
X62639222Y-46590779D01*
X62635035Y-46600080D01*
X62623846Y-46619921D01*
X62618045Y-46628326D01*
X62596482Y-46685183D01*
X62593570Y-46692211D01*
X62568613Y-46747665D01*
X62568609Y-46747678D01*
X62566770Y-46757711D01*
X62560651Y-46779661D01*
X62557034Y-46789199D01*
X62549705Y-46849554D01*
X62548561Y-46857071D01*
X62537598Y-46916906D01*
X62541270Y-46977608D01*
X62541500Y-46985216D01*
X62541500Y-49644340D01*
X62521498Y-49712461D01*
X62504595Y-49733435D01*
X54153435Y-58084595D01*
X54091123Y-58118621D01*
X54064340Y-58121500D01*
X50144500Y-58121500D01*
X50076379Y-58101498D01*
X50029886Y-58047842D01*
X50018500Y-57995500D01*
X50018500Y-57931367D01*
X50018499Y-57931350D01*
X50011990Y-57870803D01*
X50011988Y-57870795D01*
X49960889Y-57733797D01*
X49960889Y-57733796D01*
X49951464Y-57721206D01*
X49887311Y-57635507D01*
X49862501Y-57568989D01*
X49877592Y-57499615D01*
X49887306Y-57484497D01*
X49960889Y-57386204D01*
X50011989Y-57249201D01*
X50013217Y-57237787D01*
X50018499Y-57188649D01*
X50018500Y-57188632D01*
X50018500Y-55391367D01*
X50018499Y-55391350D01*
X50011990Y-55330803D01*
X50011988Y-55330795D01*
X49960889Y-55193797D01*
X49960887Y-55193792D01*
X49887000Y-55095091D01*
X49862189Y-55028571D01*
X49877280Y-54959197D01*
X49887001Y-54944072D01*
X49960443Y-54845966D01*
X49960444Y-54845964D01*
X50011494Y-54709093D01*
X50017999Y-54648597D01*
X50018000Y-54648585D01*
X50018000Y-54004000D01*
X45502000Y-54004000D01*
X45502000Y-54648597D01*
X45508505Y-54709093D01*
X45559555Y-54845964D01*
X45559556Y-54845966D01*
X45632999Y-54944072D01*
X45657811Y-55010592D01*
X45642720Y-55079966D01*
X45633000Y-55095091D01*
X45559112Y-55193792D01*
X45559110Y-55193797D01*
X45508011Y-55330795D01*
X45508009Y-55330803D01*
X45501500Y-55391350D01*
X45501500Y-57188649D01*
X45508009Y-57249196D01*
X45508011Y-57249204D01*
X45559110Y-57386202D01*
X45559112Y-57386207D01*
X45632687Y-57484491D01*
X45657498Y-57551011D01*
X45642407Y-57620385D01*
X45632687Y-57635509D01*
X45559112Y-57733792D01*
X45559110Y-57733797D01*
X45508011Y-57870795D01*
X45508009Y-57870803D01*
X45501500Y-57931350D01*
X45501500Y-59728649D01*
X45508009Y-59789196D01*
X45508011Y-59789204D01*
X45559110Y-59926202D01*
X45559112Y-59926207D01*
X45632687Y-60024491D01*
X45657498Y-60091011D01*
X45642407Y-60160385D01*
X45632687Y-60175509D01*
X45559112Y-60273792D01*
X45559110Y-60273797D01*
X45508011Y-60410795D01*
X45508009Y-60410803D01*
X45501500Y-60471350D01*
X45501500Y-62268649D01*
X45508009Y-62329196D01*
X45508011Y-62329204D01*
X45559110Y-62466202D01*
X45559112Y-62466207D01*
X45632687Y-62564491D01*
X45657498Y-62631011D01*
X45642407Y-62700385D01*
X45632687Y-62715509D01*
X45559112Y-62813792D01*
X45559110Y-62813797D01*
X45508011Y-62950795D01*
X45508009Y-62950803D01*
X45501500Y-63011350D01*
X45501500Y-63050500D01*
X45481498Y-63118621D01*
X45427842Y-63165114D01*
X45375500Y-63176500D01*
X40717162Y-63176500D01*
X40649041Y-63156498D01*
X40602548Y-63102842D01*
X40592444Y-63032568D01*
X40597557Y-63010868D01*
X40597557Y-63010867D01*
X40622887Y-62934426D01*
X40633500Y-62830545D01*
X40633499Y-61929456D01*
X40622887Y-61825574D01*
X40567115Y-61657262D01*
X40474030Y-61506348D01*
X40474029Y-61506347D01*
X40474024Y-61506341D01*
X40348658Y-61380975D01*
X40348652Y-61380970D01*
X40302678Y-61352613D01*
X40197738Y-61287885D01*
X40044867Y-61237229D01*
X39986496Y-61196816D01*
X39959240Y-61131260D01*
X39958500Y-61117625D01*
X39958500Y-55165095D01*
X39978502Y-55096974D01*
X40032158Y-55050481D01*
X40102432Y-55040377D01*
X40124133Y-55045491D01*
X40265669Y-55092392D01*
X40265681Y-55092394D01*
X40369483Y-55102999D01*
X40369483Y-55103000D01*
X40566000Y-55103000D01*
X40566000Y-53974000D01*
X41074000Y-53974000D01*
X41074000Y-55103000D01*
X41270517Y-55103000D01*
X41270516Y-55102999D01*
X41374318Y-55092394D01*
X41374321Y-55092393D01*
X41542525Y-55036657D01*
X41693339Y-54943634D01*
X41693345Y-54943629D01*
X41818629Y-54818345D01*
X41818634Y-54818339D01*
X41911657Y-54667525D01*
X41967393Y-54499321D01*
X41967394Y-54499318D01*
X41977999Y-54395516D01*
X41978000Y-54395516D01*
X41978000Y-53974000D01*
X41074000Y-53974000D01*
X40566000Y-53974000D01*
X40566000Y-52337000D01*
X41074000Y-52337000D01*
X41074000Y-53466000D01*
X41978000Y-53466000D01*
X41978000Y-53044483D01*
X41967394Y-52940681D01*
X41967393Y-52940678D01*
X41911657Y-52772474D01*
X41818634Y-52621660D01*
X41818629Y-52621654D01*
X41693345Y-52496370D01*
X41693339Y-52496365D01*
X41542525Y-52403342D01*
X41374321Y-52347606D01*
X41374318Y-52347605D01*
X41270516Y-52337000D01*
X41074000Y-52337000D01*
X40566000Y-52337000D01*
X40369483Y-52337000D01*
X40265681Y-52347605D01*
X40265677Y-52347606D01*
X40124133Y-52394509D01*
X40053178Y-52396949D01*
X39992168Y-52360641D01*
X39960473Y-52297112D01*
X39958500Y-52274904D01*
X39958500Y-46675660D01*
X39978502Y-46607539D01*
X39995405Y-46586565D01*
X40840470Y-45741500D01*
X42403444Y-44178525D01*
X42465754Y-44144502D01*
X42536569Y-44149566D01*
X42581632Y-44178527D01*
X43200298Y-44797193D01*
X43228777Y-44821516D01*
X43374567Y-44901665D01*
X43374569Y-44901666D01*
X43374573Y-44901668D01*
X43455719Y-44922502D01*
X43513478Y-44955448D01*
X45754389Y-47196359D01*
X45788415Y-47258671D01*
X45783350Y-47329486D01*
X45740804Y-47386322D01*
X45646737Y-47456740D01*
X45559112Y-47573792D01*
X45559110Y-47573797D01*
X45508011Y-47710795D01*
X45508009Y-47710803D01*
X45501500Y-47771350D01*
X45501500Y-49568649D01*
X45508009Y-49629196D01*
X45508011Y-49629204D01*
X45559110Y-49766202D01*
X45559112Y-49766207D01*
X45632687Y-49864491D01*
X45657498Y-49931011D01*
X45642407Y-50000385D01*
X45632687Y-50015509D01*
X45559112Y-50113792D01*
X45559110Y-50113797D01*
X45508011Y-50250795D01*
X45508009Y-50250803D01*
X45501500Y-50311350D01*
X45501500Y-52108649D01*
X45508009Y-52169196D01*
X45508011Y-52169204D01*
X45559110Y-52306202D01*
X45559112Y-52306207D01*
X45632999Y-52404907D01*
X45657810Y-52471427D01*
X45642719Y-52540801D01*
X45633000Y-52555924D01*
X45559555Y-52654035D01*
X45508505Y-52790906D01*
X45502000Y-52851402D01*
X45502000Y-53496000D01*
X50018000Y-53496000D01*
X50018000Y-52851414D01*
X50017999Y-52851402D01*
X50011494Y-52790906D01*
X49960444Y-52654035D01*
X49960444Y-52654034D01*
X49887000Y-52555925D01*
X49862189Y-52489405D01*
X49877280Y-52420031D01*
X49886998Y-52404909D01*
X49960889Y-52306204D01*
X50011989Y-52169201D01*
X50018500Y-52108638D01*
X50018500Y-50311362D01*
X50012817Y-50258499D01*
X50011990Y-50250803D01*
X50011988Y-50250795D01*
X49960889Y-50113797D01*
X49960889Y-50113796D01*
X49960886Y-50113792D01*
X49887311Y-50015507D01*
X49862501Y-49948989D01*
X49877592Y-49879615D01*
X49887306Y-49864497D01*
X49936600Y-49798649D01*
X53651500Y-49798649D01*
X53658009Y-49859196D01*
X53658011Y-49859204D01*
X53709110Y-49996202D01*
X53709112Y-49996207D01*
X53796738Y-50113261D01*
X53913792Y-50200887D01*
X53913794Y-50200888D01*
X53913796Y-50200889D01*
X53972875Y-50222924D01*
X54050795Y-50251988D01*
X54050803Y-50251990D01*
X54111350Y-50258499D01*
X54111355Y-50258499D01*
X54111362Y-50258500D01*
X54111368Y-50258500D01*
X55908632Y-50258500D01*
X55908638Y-50258500D01*
X55908645Y-50258499D01*
X55908649Y-50258499D01*
X55969196Y-50251990D01*
X55969199Y-50251989D01*
X55969201Y-50251989D01*
X55972392Y-50250799D01*
X55988045Y-50244960D01*
X56106204Y-50200889D01*
X56204907Y-50127000D01*
X56271426Y-50102189D01*
X56340800Y-50117280D01*
X56355925Y-50127000D01*
X56454034Y-50200444D01*
X56590906Y-50251494D01*
X56651402Y-50257999D01*
X56651415Y-50258000D01*
X57296000Y-50258000D01*
X57804000Y-50258000D01*
X58448585Y-50258000D01*
X58448597Y-50257999D01*
X58509093Y-50251494D01*
X58645964Y-50200444D01*
X58645966Y-50200443D01*
X58744072Y-50127001D01*
X58810592Y-50102189D01*
X58879966Y-50117280D01*
X58895091Y-50127000D01*
X58993792Y-50200887D01*
X58993794Y-50200888D01*
X58993796Y-50200889D01*
X59052875Y-50222924D01*
X59130795Y-50251988D01*
X59130803Y-50251990D01*
X59191350Y-50258499D01*
X59191355Y-50258499D01*
X59191362Y-50258500D01*
X59191368Y-50258500D01*
X60988632Y-50258500D01*
X60988638Y-50258500D01*
X60988645Y-50258499D01*
X60988649Y-50258499D01*
X61049196Y-50251990D01*
X61049199Y-50251989D01*
X61049201Y-50251989D01*
X61052392Y-50250799D01*
X61068045Y-50244960D01*
X61186204Y-50200889D01*
X61186799Y-50200444D01*
X61303261Y-50113261D01*
X61390887Y-49996207D01*
X61390887Y-49996206D01*
X61390889Y-49996204D01*
X61441989Y-49859201D01*
X61448500Y-49798638D01*
X61448500Y-46201362D01*
X61448499Y-46201350D01*
X61441990Y-46140803D01*
X61441988Y-46140795D01*
X61390889Y-46003797D01*
X61390887Y-46003792D01*
X61303261Y-45886738D01*
X61186207Y-45799112D01*
X61186202Y-45799110D01*
X61049204Y-45748011D01*
X61049196Y-45748009D01*
X60988649Y-45741500D01*
X60988638Y-45741500D01*
X59191362Y-45741500D01*
X59191350Y-45741500D01*
X59130803Y-45748009D01*
X59130795Y-45748011D01*
X58993797Y-45799110D01*
X58993792Y-45799112D01*
X58895091Y-45873000D01*
X58828571Y-45897811D01*
X58759197Y-45882720D01*
X58744072Y-45872999D01*
X58645966Y-45799556D01*
X58645964Y-45799555D01*
X58509093Y-45748505D01*
X58448597Y-45742000D01*
X57804000Y-45742000D01*
X57804000Y-50258000D01*
X57296000Y-50258000D01*
X57296000Y-45742000D01*
X56651402Y-45742000D01*
X56590906Y-45748505D01*
X56454035Y-45799555D01*
X56355924Y-45873000D01*
X56289404Y-45897810D01*
X56220030Y-45882718D01*
X56204907Y-45872999D01*
X56106207Y-45799112D01*
X56106202Y-45799110D01*
X55969204Y-45748011D01*
X55969196Y-45748009D01*
X55908649Y-45741500D01*
X55908638Y-45741500D01*
X54111362Y-45741500D01*
X54111350Y-45741500D01*
X54050803Y-45748009D01*
X54050795Y-45748011D01*
X53913797Y-45799110D01*
X53913792Y-45799112D01*
X53796738Y-45886738D01*
X53709112Y-46003792D01*
X53709110Y-46003797D01*
X53658011Y-46140795D01*
X53658009Y-46140803D01*
X53651500Y-46201350D01*
X53651500Y-49798649D01*
X49936600Y-49798649D01*
X49960889Y-49766204D01*
X50011989Y-49629201D01*
X50018500Y-49568638D01*
X50018500Y-47771362D01*
X50018499Y-47771350D01*
X50011990Y-47710803D01*
X50011988Y-47710795D01*
X49960889Y-47573797D01*
X49960887Y-47573792D01*
X49873261Y-47456738D01*
X49756207Y-47369112D01*
X49756202Y-47369110D01*
X49619204Y-47318011D01*
X49619196Y-47318009D01*
X49558649Y-47311500D01*
X49558638Y-47311500D01*
X47925661Y-47311500D01*
X47857540Y-47291498D01*
X47836566Y-47274595D01*
X44492618Y-43930648D01*
X44459672Y-43872889D01*
X44448166Y-43828075D01*
X44448163Y-43828069D01*
X44368014Y-43682279D01*
X44343697Y-43653807D01*
X44248053Y-43558163D01*
X44086066Y-43396176D01*
X44052043Y-43333866D01*
X44057107Y-43263051D01*
X44099654Y-43206215D01*
X44166174Y-43181404D01*
X44175163Y-43181083D01*
X44219003Y-43181083D01*
X44287124Y-43201085D01*
X44308093Y-43217983D01*
X44481434Y-43391324D01*
X44543807Y-43453697D01*
X44572279Y-43478014D01*
X44718069Y-43558163D01*
X44718077Y-43558167D01*
X44879215Y-43599540D01*
X44879223Y-43599542D01*
X44879226Y-43599542D01*
X45045596Y-43599542D01*
X45045599Y-43599542D01*
X45206748Y-43558166D01*
X45352544Y-43478013D01*
X45381017Y-43453695D01*
X45609308Y-43225403D01*
X45671619Y-43191380D01*
X45698402Y-43188500D01*
X46339016Y-43188500D01*
X46407137Y-43208502D01*
X46453630Y-43262158D01*
X46458621Y-43274869D01*
X46462884Y-43287736D01*
X46555970Y-43438652D01*
X46555975Y-43438658D01*
X46681341Y-43564024D01*
X46681347Y-43564029D01*
X46681348Y-43564030D01*
X46832262Y-43657115D01*
X47000574Y-43712887D01*
X47104455Y-43723500D01*
X47880544Y-43723499D01*
X47984426Y-43712887D01*
X48152738Y-43657115D01*
X48303652Y-43564030D01*
X48429030Y-43438652D01*
X48429037Y-43438639D01*
X48431478Y-43435554D01*
X48433709Y-43433973D01*
X48434220Y-43433463D01*
X48434307Y-43433550D01*
X48489416Y-43394521D01*
X48560340Y-43391324D01*
X48621734Y-43426980D01*
X48629161Y-43435551D01*
X48631369Y-43438344D01*
X48756654Y-43563629D01*
X48756660Y-43563634D01*
X48907474Y-43656657D01*
X49075678Y-43712393D01*
X49075681Y-43712394D01*
X49179483Y-43722999D01*
X49179483Y-43723000D01*
X49313500Y-43723000D01*
X49313500Y-42744000D01*
X49821500Y-42744000D01*
X49821500Y-43723000D01*
X49955517Y-43723000D01*
X49955516Y-43722999D01*
X50059318Y-43712394D01*
X50059321Y-43712393D01*
X50227525Y-43656657D01*
X50378339Y-43563634D01*
X50378345Y-43563629D01*
X50503629Y-43438345D01*
X50503634Y-43438339D01*
X50596657Y-43287525D01*
X50652393Y-43119321D01*
X50652394Y-43119318D01*
X50662999Y-43015516D01*
X50663000Y-43015516D01*
X50663000Y-42744000D01*
X49821500Y-42744000D01*
X49313500Y-42744000D01*
X49313500Y-41714566D01*
X49311000Y-41691309D01*
X49311000Y-40724000D01*
X49819000Y-40724000D01*
X49819000Y-41245433D01*
X49821500Y-41268691D01*
X49821500Y-42236000D01*
X50663000Y-42236000D01*
X50663000Y-41964483D01*
X50652394Y-41860681D01*
X50652393Y-41860678D01*
X50596657Y-41692474D01*
X50505151Y-41544120D01*
X50486414Y-41475641D01*
X50505151Y-41411826D01*
X50594157Y-41267525D01*
X50649893Y-41099321D01*
X50649894Y-41099318D01*
X50660499Y-40995516D01*
X50660500Y-40995516D01*
X50660500Y-40724000D01*
X49819000Y-40724000D01*
X49311000Y-40724000D01*
X49311000Y-39237000D01*
X49819000Y-39237000D01*
X49819000Y-40216000D01*
X50660500Y-40216000D01*
X50660500Y-39944483D01*
X50649894Y-39840681D01*
X50649893Y-39840678D01*
X50594157Y-39672474D01*
X50501134Y-39521660D01*
X50501129Y-39521654D01*
X50375845Y-39396370D01*
X50375839Y-39396365D01*
X50225025Y-39303342D01*
X50056821Y-39247606D01*
X50056818Y-39247605D01*
X49953016Y-39237000D01*
X49819000Y-39237000D01*
X49311000Y-39237000D01*
X49176983Y-39237000D01*
X49073181Y-39247605D01*
X49073178Y-39247606D01*
X48904974Y-39303342D01*
X48754160Y-39396365D01*
X48754154Y-39396370D01*
X48628870Y-39521654D01*
X48626657Y-39524454D01*
X48624649Y-39525875D01*
X48623675Y-39526850D01*
X48623508Y-39526683D01*
X48568716Y-39565482D01*
X48497791Y-39568672D01*
X48436400Y-39533011D01*
X48428983Y-39524450D01*
X48426528Y-39521345D01*
X48301158Y-39395975D01*
X48301152Y-39395970D01*
X48246075Y-39361998D01*
X48150238Y-39302885D01*
X48008746Y-39256000D01*
X47981927Y-39247113D01*
X47981920Y-39247112D01*
X47878053Y-39236500D01*
X47101955Y-39236500D01*
X46998074Y-39247112D01*
X46829761Y-39302885D01*
X46678847Y-39395970D01*
X46678841Y-39395975D01*
X46553475Y-39521341D01*
X46553470Y-39521347D01*
X46460385Y-39672262D01*
X46404613Y-39840572D01*
X46404612Y-39840579D01*
X46394000Y-39944446D01*
X46394000Y-40995544D01*
X46404612Y-41099425D01*
X46444120Y-41218652D01*
X46460385Y-41267738D01*
X46543776Y-41402936D01*
X46551760Y-41415879D01*
X46570497Y-41484358D01*
X46551760Y-41548173D01*
X46462883Y-41692265D01*
X46459859Y-41698751D01*
X46412941Y-41752036D01*
X46345665Y-41771500D01*
X45200584Y-41771500D01*
X45132463Y-41751498D01*
X45111493Y-41734599D01*
X44868365Y-41491471D01*
X44868364Y-41491470D01*
X44868362Y-41491468D01*
X44839890Y-41467151D01*
X44694100Y-41387002D01*
X44694092Y-41386998D01*
X44532954Y-41345625D01*
X44532948Y-41345624D01*
X44532947Y-41345624D01*
X44366571Y-41345624D01*
X44366564Y-41345624D01*
X44364964Y-41345826D01*
X44363712Y-41345624D01*
X44358644Y-41345624D01*
X44358644Y-41344806D01*
X44294875Y-41334516D01*
X44242026Y-41287107D01*
X44223199Y-41218652D01*
X44224174Y-41205020D01*
X44224374Y-41203436D01*
X44224376Y-41203429D01*
X44224376Y-41037053D01*
X44224374Y-41037045D01*
X44183001Y-40875907D01*
X44182997Y-40875899D01*
X44102848Y-40730109D01*
X44078525Y-40701630D01*
X43259701Y-39882806D01*
X43231222Y-39858483D01*
X43085432Y-39778334D01*
X43085424Y-39778330D01*
X42924286Y-39736957D01*
X42924280Y-39736956D01*
X42924279Y-39736956D01*
X42757903Y-39736956D01*
X42757901Y-39736956D01*
X42757895Y-39736957D01*
X42596756Y-39778331D01*
X42596752Y-39778332D01*
X42450967Y-39858479D01*
X42450953Y-39858488D01*
X42422491Y-39882796D01*
X42187723Y-40117564D01*
X42125411Y-40151589D01*
X42054595Y-40146524D01*
X42009535Y-40117564D01*
X39148826Y-37256856D01*
X39143610Y-37251316D01*
X39103271Y-37205783D01*
X39053220Y-37171234D01*
X39047093Y-37166726D01*
X38999226Y-37129225D01*
X38999222Y-37129223D01*
X38989919Y-37125035D01*
X38970069Y-37113840D01*
X38961675Y-37108046D01*
X38944847Y-37101664D01*
X38904821Y-37086483D01*
X38897794Y-37083572D01*
X38842332Y-37058612D01*
X38842330Y-37058611D01*
X38842329Y-37058611D01*
X38832286Y-37056770D01*
X38810336Y-37050650D01*
X38800801Y-37047035D01*
X38800800Y-37047034D01*
X38800798Y-37047034D01*
X38800794Y-37047033D01*
X38740433Y-37039704D01*
X38732914Y-37038559D01*
X38694388Y-37031500D01*
X38673094Y-37027598D01*
X38673093Y-37027598D01*
X38622132Y-37030680D01*
X38612390Y-37031270D01*
X38604782Y-37031500D01*
X36342788Y-37031500D01*
X36274667Y-37011498D01*
X36228174Y-36957842D01*
X36224733Y-36949533D01*
X36190889Y-36858797D01*
X36190887Y-36858792D01*
X36103261Y-36741738D01*
X35986207Y-36654112D01*
X35986202Y-36654110D01*
X35849204Y-36603011D01*
X35849196Y-36603009D01*
X35788649Y-36596500D01*
X35788638Y-36596500D01*
X32126500Y-36596500D01*
X32058379Y-36576498D01*
X32011886Y-36522842D01*
X32000500Y-36470500D01*
X32000500Y-36224000D01*
X32020502Y-36155879D01*
X32074158Y-36109386D01*
X32126500Y-36098000D01*
X33886000Y-36098000D01*
X33886000Y-35169000D01*
X34394000Y-35169000D01*
X34394000Y-36098000D01*
X36288585Y-36098000D01*
X36288597Y-36097999D01*
X36349093Y-36091494D01*
X36485964Y-36040444D01*
X36485965Y-36040444D01*
X36602904Y-35952904D01*
X36690444Y-35835965D01*
X36690444Y-35835964D01*
X36741494Y-35699093D01*
X36747999Y-35638597D01*
X36748000Y-35638585D01*
X36748000Y-35169000D01*
X34394000Y-35169000D01*
X33886000Y-35169000D01*
X33886000Y-34787000D01*
X33906002Y-34718879D01*
X33959658Y-34672386D01*
X34012000Y-34661000D01*
X36748000Y-34661000D01*
X36748000Y-34191414D01*
X36747999Y-34191404D01*
X36742469Y-34139971D01*
X36755074Y-34070102D01*
X36803451Y-34018139D01*
X36867747Y-34000500D01*
X63143377Y-34000500D01*
X84873789Y-34049691D01*
G37*
%TD.AperFunction*%
%TA.AperFunction,Conductor*%
G36*
X81564000Y-96036325D02*
G01*
X81452315Y-95985320D01*
X81345763Y-95970000D01*
X81274237Y-95970000D01*
X81167685Y-95985320D01*
X81056000Y-96036325D01*
X81056000Y-94363674D01*
X81167685Y-94414680D01*
X81274237Y-94430000D01*
X81345763Y-94430000D01*
X81452315Y-94414680D01*
X81564000Y-94363674D01*
X81564000Y-96036325D01*
G37*
%TD.AperFunction*%
%TA.AperFunction,Conductor*%
G36*
X37880782Y-64613502D02*
G01*
X37927275Y-64667158D01*
X37937379Y-64737432D01*
X37932267Y-64759125D01*
X37908419Y-64831097D01*
X37877113Y-64925573D01*
X37877112Y-64925579D01*
X37866500Y-65029446D01*
X37866500Y-65930544D01*
X37877112Y-66034425D01*
X37932885Y-66202738D01*
X38025970Y-66353652D01*
X38025975Y-66353658D01*
X38151341Y-66479024D01*
X38151347Y-66479029D01*
X38151348Y-66479030D01*
X38302262Y-66572115D01*
X38455135Y-66622771D01*
X38513504Y-66663183D01*
X38540760Y-66728739D01*
X38541500Y-66742374D01*
X38541500Y-67349654D01*
X38540579Y-67364858D01*
X38539702Y-67372073D01*
X38538560Y-67379576D01*
X38527598Y-67439406D01*
X38531270Y-67500108D01*
X38531500Y-67507716D01*
X38531500Y-79824782D01*
X38531269Y-79832390D01*
X38527598Y-79893093D01*
X38538298Y-79951484D01*
X38538559Y-79952910D01*
X38539709Y-79960474D01*
X38539771Y-79960986D01*
X38528103Y-80031017D01*
X38504000Y-80062113D01*
X38504000Y-80966325D01*
X38392315Y-80915320D01*
X38285763Y-80900000D01*
X38214237Y-80900000D01*
X38107685Y-80915320D01*
X37996000Y-80966325D01*
X37996000Y-80065607D01*
X37995999Y-80065606D01*
X37915498Y-80079040D01*
X37915487Y-80079043D01*
X37702630Y-80152116D01*
X37702628Y-80152117D01*
X37504699Y-80259231D01*
X37504698Y-80259232D01*
X37327096Y-80397465D01*
X37265951Y-80463888D01*
X37205098Y-80500459D01*
X37134134Y-80498324D01*
X37075588Y-80458163D01*
X37055195Y-80422583D01*
X37010889Y-80303796D01*
X37010887Y-80303792D01*
X36923261Y-80186738D01*
X36806207Y-80099112D01*
X36806202Y-80099110D01*
X36669204Y-80048011D01*
X36669196Y-80048009D01*
X36608649Y-80041500D01*
X36608638Y-80041500D01*
X34811362Y-80041500D01*
X34811350Y-80041500D01*
X34750803Y-80048009D01*
X34750795Y-80048011D01*
X34613797Y-80099110D01*
X34613792Y-80099112D01*
X34496738Y-80186738D01*
X34409112Y-80303792D01*
X34409110Y-80303797D01*
X34358011Y-80440795D01*
X34358009Y-80440803D01*
X34351500Y-80501350D01*
X34351500Y-82298649D01*
X34358009Y-82359196D01*
X34358011Y-82359204D01*
X34409110Y-82496202D01*
X34409112Y-82496207D01*
X34496738Y-82613261D01*
X34613792Y-82700887D01*
X34613794Y-82700888D01*
X34613796Y-82700889D01*
X34667600Y-82720957D01*
X34750795Y-82751988D01*
X34750798Y-82751988D01*
X34750799Y-82751989D01*
X34750804Y-82751990D01*
X34779812Y-82755108D01*
X34788965Y-82756092D01*
X34854558Y-82783259D01*
X34895051Y-82841576D01*
X34901500Y-82881370D01*
X34901500Y-83411099D01*
X34910091Y-83448741D01*
X34912458Y-83462668D01*
X34916782Y-83501046D01*
X34916784Y-83501053D01*
X34929535Y-83537495D01*
X34933445Y-83551065D01*
X34942040Y-83588716D01*
X34942042Y-83588724D01*
X34958796Y-83623513D01*
X34964203Y-83636566D01*
X34976957Y-83673015D01*
X34992726Y-83698111D01*
X34997500Y-83705709D01*
X35004334Y-83718074D01*
X35021090Y-83752868D01*
X35021092Y-83752872D01*
X35045168Y-83783062D01*
X35053344Y-83794584D01*
X35073889Y-83827281D01*
X35106197Y-83859589D01*
X35826617Y-84580009D01*
X35860643Y-84642321D01*
X35855578Y-84713136D01*
X35826619Y-84758198D01*
X35793468Y-84791349D01*
X35791011Y-84794457D01*
X35788784Y-84796033D01*
X35788282Y-84796536D01*
X35788196Y-84796450D01*
X35733068Y-84835483D01*
X35662143Y-84838671D01*
X35600754Y-84803008D01*
X35593337Y-84794446D01*
X35591132Y-84791657D01*
X35465845Y-84666370D01*
X35465839Y-84666365D01*
X35315025Y-84573342D01*
X35146821Y-84517606D01*
X35146818Y-84517605D01*
X35043016Y-84507000D01*
X34909000Y-84507000D01*
X34909000Y-89453000D01*
X35043017Y-89453000D01*
X35043016Y-89452999D01*
X35146818Y-89442394D01*
X35146821Y-89442393D01*
X35315025Y-89386657D01*
X35465839Y-89293634D01*
X35465845Y-89293629D01*
X35591124Y-89168350D01*
X35593332Y-89165558D01*
X35595337Y-89164137D01*
X35596325Y-89163150D01*
X35596493Y-89163318D01*
X35651268Y-89124522D01*
X35722193Y-89121323D01*
X35783588Y-89156976D01*
X35791015Y-89165547D01*
X35793474Y-89168657D01*
X35918841Y-89294024D01*
X35918847Y-89294029D01*
X35918848Y-89294030D01*
X36069762Y-89387115D01*
X36238074Y-89442887D01*
X36341955Y-89453500D01*
X36547916Y-89453499D01*
X36616037Y-89473501D01*
X36637012Y-89490404D01*
X37484595Y-90337987D01*
X37518621Y-90400299D01*
X37521500Y-90427082D01*
X37521500Y-93635500D01*
X37501498Y-93703621D01*
X37447842Y-93750114D01*
X37395500Y-93761500D01*
X36261084Y-93761500D01*
X36192963Y-93741498D01*
X36146470Y-93687842D01*
X36143029Y-93679533D01*
X36140889Y-93673797D01*
X36140887Y-93673792D01*
X36053261Y-93556738D01*
X35936207Y-93469112D01*
X35936202Y-93469110D01*
X35799204Y-93418011D01*
X35799196Y-93418009D01*
X35738649Y-93411500D01*
X35738638Y-93411500D01*
X32126500Y-93411500D01*
X32058379Y-93391498D01*
X32011886Y-93337842D01*
X32000500Y-93285500D01*
X32000500Y-93039000D01*
X32020502Y-92970879D01*
X32074158Y-92924386D01*
X32126500Y-92913000D01*
X33836000Y-92913000D01*
X33836000Y-91984000D01*
X34344000Y-91984000D01*
X34344000Y-92913000D01*
X36238585Y-92913000D01*
X36238597Y-92912999D01*
X36299093Y-92906494D01*
X36435964Y-92855444D01*
X36435965Y-92855444D01*
X36552904Y-92767904D01*
X36640444Y-92650965D01*
X36640444Y-92650964D01*
X36691494Y-92514093D01*
X36697999Y-92453597D01*
X36698000Y-92453585D01*
X36698000Y-91984000D01*
X34344000Y-91984000D01*
X33836000Y-91984000D01*
X33836000Y-90547000D01*
X34344000Y-90547000D01*
X34344000Y-91476000D01*
X36698000Y-91476000D01*
X36698000Y-91006414D01*
X36697999Y-91006402D01*
X36691494Y-90945906D01*
X36640444Y-90809035D01*
X36640444Y-90809034D01*
X36552904Y-90692095D01*
X36435965Y-90604555D01*
X36299093Y-90553505D01*
X36238597Y-90547000D01*
X34344000Y-90547000D01*
X33836000Y-90547000D01*
X32126500Y-90547000D01*
X32058379Y-90526998D01*
X32011886Y-90473342D01*
X32000500Y-90421000D01*
X32000500Y-88474000D01*
X33559500Y-88474000D01*
X33559500Y-88745516D01*
X33570105Y-88849318D01*
X33570106Y-88849321D01*
X33625842Y-89017525D01*
X33718865Y-89168339D01*
X33718870Y-89168345D01*
X33844154Y-89293629D01*
X33844160Y-89293634D01*
X33994974Y-89386657D01*
X34163178Y-89442393D01*
X34163181Y-89442394D01*
X34266983Y-89452999D01*
X34266983Y-89453000D01*
X34401000Y-89453000D01*
X34401000Y-88474000D01*
X33559500Y-88474000D01*
X32000500Y-88474000D01*
X32000500Y-85994000D01*
X33559500Y-85994000D01*
X33559500Y-86265516D01*
X33570105Y-86369318D01*
X33570106Y-86369321D01*
X33625842Y-86537525D01*
X33718865Y-86688339D01*
X33718870Y-86688345D01*
X33844154Y-86813629D01*
X33844160Y-86813634D01*
X33940016Y-86872759D01*
X33987494Y-86925545D01*
X33998897Y-86995620D01*
X33970604Y-87060736D01*
X33940016Y-87087241D01*
X33844160Y-87146365D01*
X33844154Y-87146370D01*
X33718870Y-87271654D01*
X33718865Y-87271660D01*
X33625842Y-87422474D01*
X33570106Y-87590678D01*
X33570105Y-87590681D01*
X33559500Y-87694483D01*
X33559500Y-87966000D01*
X34401000Y-87966000D01*
X34401000Y-85994000D01*
X33559500Y-85994000D01*
X32000500Y-85994000D01*
X32000500Y-85486000D01*
X33559500Y-85486000D01*
X34401000Y-85486000D01*
X34401000Y-84507000D01*
X34266983Y-84507000D01*
X34163181Y-84517605D01*
X34163178Y-84517606D01*
X33994974Y-84573342D01*
X33844160Y-84666365D01*
X33844154Y-84666370D01*
X33718870Y-84791654D01*
X33718865Y-84791660D01*
X33625842Y-84942474D01*
X33570106Y-85110678D01*
X33570105Y-85110681D01*
X33559500Y-85214483D01*
X33559500Y-85486000D01*
X32000500Y-85486000D01*
X32000500Y-68019000D01*
X32020502Y-67950879D01*
X32074158Y-67904386D01*
X32126500Y-67893000D01*
X33836000Y-67893000D01*
X33836000Y-66964000D01*
X34344000Y-66964000D01*
X34344000Y-67893000D01*
X36238585Y-67893000D01*
X36238597Y-67892999D01*
X36299093Y-67886494D01*
X36435964Y-67835444D01*
X36435965Y-67835444D01*
X36552904Y-67747904D01*
X36640444Y-67630965D01*
X36640444Y-67630964D01*
X36691494Y-67494093D01*
X36697999Y-67433597D01*
X36698000Y-67433585D01*
X36698000Y-66964000D01*
X34344000Y-66964000D01*
X33836000Y-66964000D01*
X33836000Y-65527000D01*
X34344000Y-65527000D01*
X34344000Y-66456000D01*
X36698000Y-66456000D01*
X36698000Y-65986414D01*
X36697999Y-65986402D01*
X36691494Y-65925906D01*
X36640444Y-65789035D01*
X36640444Y-65789034D01*
X36552904Y-65672095D01*
X36435965Y-65584555D01*
X36299093Y-65533505D01*
X36238597Y-65527000D01*
X34344000Y-65527000D01*
X33836000Y-65527000D01*
X32126500Y-65527000D01*
X32058379Y-65506998D01*
X32011886Y-65453342D01*
X32000500Y-65401000D01*
X32000500Y-65154500D01*
X32020502Y-65086379D01*
X32074158Y-65039886D01*
X32126500Y-65028500D01*
X35738632Y-65028500D01*
X35738638Y-65028500D01*
X35738645Y-65028499D01*
X35738649Y-65028499D01*
X35799196Y-65021990D01*
X35799199Y-65021989D01*
X35799201Y-65021989D01*
X35936204Y-64970889D01*
X36053261Y-64883261D01*
X36092311Y-64831096D01*
X36140887Y-64766207D01*
X36140887Y-64766206D01*
X36140889Y-64766204D01*
X36161299Y-64711484D01*
X36174733Y-64675467D01*
X36217280Y-64618631D01*
X36283800Y-64593821D01*
X36292788Y-64593500D01*
X37812661Y-64593500D01*
X37880782Y-64613502D01*
G37*
%TD.AperFunction*%
%TA.AperFunction,Conductor*%
G36*
X81564000Y-93496325D02*
G01*
X81452315Y-93445320D01*
X81345763Y-93430000D01*
X81274237Y-93430000D01*
X81167685Y-93445320D01*
X81056000Y-93496325D01*
X81056000Y-91823674D01*
X81167685Y-91874680D01*
X81274237Y-91890000D01*
X81345763Y-91890000D01*
X81452315Y-91874680D01*
X81564000Y-91823674D01*
X81564000Y-93496325D01*
G37*
%TD.AperFunction*%
%TA.AperFunction,Conductor*%
G36*
X81564000Y-90956325D02*
G01*
X81452315Y-90905320D01*
X81345763Y-90890000D01*
X81274237Y-90890000D01*
X81167685Y-90905320D01*
X81056000Y-90956325D01*
X81056000Y-89283674D01*
X81167685Y-89334680D01*
X81274237Y-89350000D01*
X81345763Y-89350000D01*
X81452315Y-89334680D01*
X81564000Y-89283674D01*
X81564000Y-90956325D01*
G37*
%TD.AperFunction*%
%TA.AperFunction,Conductor*%
G36*
X81564000Y-88416325D02*
G01*
X81452315Y-88365320D01*
X81345763Y-88350000D01*
X81274237Y-88350000D01*
X81167685Y-88365320D01*
X81056000Y-88416325D01*
X81056000Y-86743674D01*
X81167685Y-86794680D01*
X81274237Y-86810000D01*
X81345763Y-86810000D01*
X81452315Y-86794680D01*
X81564000Y-86743674D01*
X81564000Y-88416325D01*
G37*
%TD.AperFunction*%
%TA.AperFunction,Conductor*%
G36*
X81564000Y-85876325D02*
G01*
X81452315Y-85825320D01*
X81345763Y-85810000D01*
X81274237Y-85810000D01*
X81167685Y-85825320D01*
X81056000Y-85876325D01*
X81056000Y-84203674D01*
X81167685Y-84254680D01*
X81274237Y-84270000D01*
X81345763Y-84270000D01*
X81452315Y-84254680D01*
X81564000Y-84203674D01*
X81564000Y-85876325D01*
G37*
%TD.AperFunction*%
%TA.AperFunction,Conductor*%
G36*
X81564000Y-83336325D02*
G01*
X81452315Y-83285320D01*
X81345763Y-83270000D01*
X81274237Y-83270000D01*
X81167685Y-83285320D01*
X81056000Y-83336325D01*
X81056000Y-81663674D01*
X81167685Y-81714680D01*
X81274237Y-81730000D01*
X81345763Y-81730000D01*
X81452315Y-81714680D01*
X81564000Y-81663674D01*
X81564000Y-83336325D01*
G37*
%TD.AperFunction*%
%TA.AperFunction,Conductor*%
G36*
X69735936Y-72515123D02*
G01*
X69764646Y-72536616D01*
X76401171Y-79173141D01*
X76406387Y-79178682D01*
X76446724Y-79224212D01*
X76446727Y-79224215D01*
X76496768Y-79258756D01*
X76502899Y-79263267D01*
X76550774Y-79300775D01*
X76560070Y-79304958D01*
X76579935Y-79316163D01*
X76588320Y-79321951D01*
X76588322Y-79321952D01*
X76588325Y-79321954D01*
X76588329Y-79321955D01*
X76588332Y-79321957D01*
X76645176Y-79343515D01*
X76652208Y-79346427D01*
X76707671Y-79371389D01*
X76717704Y-79373227D01*
X76739668Y-79379351D01*
X76749195Y-79382964D01*
X76749197Y-79382964D01*
X76749199Y-79382965D01*
X76809605Y-79390299D01*
X76817042Y-79391431D01*
X76876907Y-79402402D01*
X76937610Y-79398730D01*
X76945218Y-79398500D01*
X77541962Y-79398500D01*
X77610083Y-79418502D01*
X77647445Y-79455585D01*
X77694275Y-79527265D01*
X77694279Y-79527270D01*
X77846762Y-79692908D01*
X77901331Y-79735381D01*
X78024424Y-79831189D01*
X78058205Y-79849470D01*
X78108596Y-79899482D01*
X78123949Y-79968799D01*
X78099389Y-80035412D01*
X78058209Y-80071096D01*
X78024704Y-80089228D01*
X78024698Y-80089232D01*
X77847097Y-80227465D01*
X77694674Y-80393041D01*
X77571580Y-80581451D01*
X77481179Y-80787543D01*
X77481176Y-80787550D01*
X77433455Y-80975999D01*
X77433456Y-80976000D01*
X78338884Y-80976000D01*
X78310507Y-81020156D01*
X78270000Y-81158111D01*
X78270000Y-81301889D01*
X78310507Y-81439844D01*
X78338884Y-81484000D01*
X77433455Y-81484000D01*
X77481176Y-81672449D01*
X77481179Y-81672456D01*
X77571580Y-81878548D01*
X77694674Y-82066958D01*
X77847097Y-82232534D01*
X78024698Y-82370767D01*
X78024704Y-82370771D01*
X78058207Y-82388902D01*
X78108597Y-82438915D01*
X78123949Y-82508232D01*
X78099388Y-82574845D01*
X78058207Y-82610528D01*
X78024430Y-82628807D01*
X78024424Y-82628811D01*
X77846762Y-82767091D01*
X77694279Y-82932729D01*
X77694275Y-82932734D01*
X77647445Y-83004415D01*
X77593442Y-83050504D01*
X77541962Y-83061500D01*
X77465660Y-83061500D01*
X77397539Y-83041498D01*
X77376565Y-83024595D01*
X70478827Y-76126857D01*
X70473610Y-76121316D01*
X70433273Y-76075785D01*
X70433272Y-76075784D01*
X70433271Y-76075783D01*
X70383220Y-76041234D01*
X70377093Y-76036726D01*
X70329226Y-75999225D01*
X70329222Y-75999223D01*
X70319919Y-75995035D01*
X70300069Y-75983840D01*
X70291675Y-75978046D01*
X70274847Y-75971664D01*
X70234821Y-75956483D01*
X70227794Y-75953572D01*
X70172332Y-75928612D01*
X70172330Y-75928611D01*
X70172329Y-75928611D01*
X70162286Y-75926770D01*
X70140336Y-75920650D01*
X70130801Y-75917035D01*
X70130800Y-75917034D01*
X70130798Y-75917034D01*
X70130794Y-75917033D01*
X70070433Y-75909704D01*
X70062914Y-75908559D01*
X70024388Y-75901500D01*
X70003094Y-75897598D01*
X70003093Y-75897598D01*
X69952132Y-75900680D01*
X69942390Y-75901270D01*
X69934782Y-75901500D01*
X69724500Y-75901500D01*
X69656379Y-75881498D01*
X69609886Y-75827842D01*
X69598500Y-75775500D01*
X69598500Y-75711367D01*
X69598499Y-75711350D01*
X69591990Y-75650803D01*
X69591988Y-75650795D01*
X69540889Y-75513797D01*
X69540889Y-75513796D01*
X69511686Y-75474786D01*
X69467311Y-75415507D01*
X69442501Y-75348989D01*
X69457592Y-75279615D01*
X69467306Y-75264497D01*
X69540889Y-75166204D01*
X69591989Y-75029201D01*
X69594182Y-75008810D01*
X69598499Y-74968649D01*
X69598500Y-74968632D01*
X69598500Y-73171367D01*
X69598499Y-73171350D01*
X69591990Y-73110803D01*
X69591988Y-73110795D01*
X69540889Y-72973797D01*
X69540889Y-72973796D01*
X69511686Y-72934786D01*
X69467311Y-72875507D01*
X69442501Y-72808989D01*
X69457592Y-72739615D01*
X69467306Y-72724497D01*
X69540889Y-72626204D01*
X69557497Y-72581675D01*
X69600041Y-72524843D01*
X69666561Y-72500032D01*
X69735936Y-72515123D01*
G37*
%TD.AperFunction*%
%TA.AperFunction,Conductor*%
G36*
X80850507Y-81020156D02*
G01*
X80810000Y-81158111D01*
X80810000Y-81301889D01*
X80850507Y-81439844D01*
X80878884Y-81484000D01*
X79201116Y-81484000D01*
X79229493Y-81439844D01*
X79270000Y-81301889D01*
X79270000Y-81158111D01*
X79229493Y-81020156D01*
X79201116Y-80976000D01*
X80878884Y-80976000D01*
X80850507Y-81020156D01*
G37*
%TD.AperFunction*%
%TA.AperFunction,Conductor*%
G36*
X81564000Y-80796325D02*
G01*
X81452315Y-80745320D01*
X81345763Y-80730000D01*
X81274237Y-80730000D01*
X81167685Y-80745320D01*
X81056000Y-80796325D01*
X81056000Y-79123674D01*
X81167685Y-79174680D01*
X81274237Y-79190000D01*
X81345763Y-79190000D01*
X81452315Y-79174680D01*
X81564000Y-79123674D01*
X81564000Y-80796325D01*
G37*
%TD.AperFunction*%
%TA.AperFunction,Conductor*%
G36*
X81564000Y-78256325D02*
G01*
X81452315Y-78205320D01*
X81345763Y-78190000D01*
X81274237Y-78190000D01*
X81167685Y-78205320D01*
X81056000Y-78256325D01*
X81056000Y-76583674D01*
X81167685Y-76634680D01*
X81274237Y-76650000D01*
X81345763Y-76650000D01*
X81452315Y-76634680D01*
X81564000Y-76583674D01*
X81564000Y-78256325D01*
G37*
%TD.AperFunction*%
%TA.AperFunction,Conductor*%
G36*
X81564000Y-75716325D02*
G01*
X81452315Y-75665320D01*
X81345763Y-75650000D01*
X81274237Y-75650000D01*
X81167685Y-75665320D01*
X81056000Y-75716325D01*
X81056000Y-74043674D01*
X81167685Y-74094680D01*
X81274237Y-74110000D01*
X81345763Y-74110000D01*
X81452315Y-74094680D01*
X81564000Y-74043674D01*
X81564000Y-75716325D01*
G37*
%TD.AperFunction*%
%TA.AperFunction,Conductor*%
G36*
X81564000Y-73176325D02*
G01*
X81452315Y-73125320D01*
X81345763Y-73110000D01*
X81274237Y-73110000D01*
X81167685Y-73125320D01*
X81056000Y-73176325D01*
X81056000Y-71503674D01*
X81167685Y-71554680D01*
X81274237Y-71570000D01*
X81345763Y-71570000D01*
X81452315Y-71554680D01*
X81564000Y-71503674D01*
X81564000Y-73176325D01*
G37*
%TD.AperFunction*%
%TA.AperFunction,Conductor*%
G36*
X81564000Y-70636325D02*
G01*
X81452315Y-70585320D01*
X81345763Y-70570000D01*
X81274237Y-70570000D01*
X81167685Y-70585320D01*
X81056000Y-70636325D01*
X81056000Y-68963674D01*
X81167685Y-69014680D01*
X81274237Y-69030000D01*
X81345763Y-69030000D01*
X81452315Y-69014680D01*
X81564000Y-68963674D01*
X81564000Y-70636325D01*
G37*
%TD.AperFunction*%
%TA.AperFunction,Conductor*%
G36*
X81564000Y-68096325D02*
G01*
X81452315Y-68045320D01*
X81345763Y-68030000D01*
X81274237Y-68030000D01*
X81167685Y-68045320D01*
X81056000Y-68096325D01*
X81056000Y-66423674D01*
X81167685Y-66474680D01*
X81274237Y-66490000D01*
X81345763Y-66490000D01*
X81452315Y-66474680D01*
X81564000Y-66423674D01*
X81564000Y-68096325D01*
G37*
%TD.AperFunction*%
%TA.AperFunction,Conductor*%
G36*
X80850507Y-65780156D02*
G01*
X80810000Y-65918111D01*
X80810000Y-66061889D01*
X80850507Y-66199844D01*
X80878884Y-66244000D01*
X79201116Y-66244000D01*
X79229493Y-66199844D01*
X79270000Y-66061889D01*
X79270000Y-65918111D01*
X79229493Y-65780156D01*
X79201116Y-65736000D01*
X80878884Y-65736000D01*
X80850507Y-65780156D01*
G37*
%TD.AperFunction*%
%TA.AperFunction,Conductor*%
G36*
X81564000Y-65556325D02*
G01*
X81452315Y-65505320D01*
X81345763Y-65490000D01*
X81274237Y-65490000D01*
X81167685Y-65505320D01*
X81056000Y-65556325D01*
X81056000Y-63883674D01*
X81167685Y-63934680D01*
X81274237Y-63950000D01*
X81345763Y-63950000D01*
X81452315Y-63934680D01*
X81564000Y-63883674D01*
X81564000Y-65556325D01*
G37*
%TD.AperFunction*%
%TA.AperFunction,Conductor*%
G36*
X38352461Y-38468502D02*
G01*
X38373435Y-38485405D01*
X41290965Y-41402936D01*
X41323911Y-41460695D01*
X41340081Y-41523672D01*
X41340082Y-41523675D01*
X41340083Y-41523676D01*
X41383639Y-41602904D01*
X41420237Y-41669474D01*
X41439880Y-41692474D01*
X41444554Y-41697946D01*
X41944480Y-42197872D01*
X41978504Y-42260183D01*
X41973440Y-42330998D01*
X41944479Y-42376061D01*
X41362178Y-42958362D01*
X41362178Y-42958364D01*
X41401825Y-42998011D01*
X41435851Y-43060323D01*
X41430786Y-43131138D01*
X41401825Y-43176201D01*
X38766856Y-45811172D01*
X38761316Y-45816388D01*
X38715784Y-45856726D01*
X38681237Y-45906774D01*
X38676731Y-45912898D01*
X38639228Y-45960769D01*
X38639222Y-45960779D01*
X38635035Y-45970080D01*
X38623846Y-45989921D01*
X38618045Y-45998326D01*
X38596482Y-46055183D01*
X38593570Y-46062211D01*
X38568613Y-46117665D01*
X38568609Y-46117678D01*
X38566770Y-46127711D01*
X38560651Y-46149661D01*
X38557034Y-46159199D01*
X38549705Y-46219554D01*
X38548561Y-46227071D01*
X38537598Y-46286906D01*
X38541270Y-46347608D01*
X38541500Y-46355216D01*
X38541500Y-52261649D01*
X38521498Y-52329770D01*
X38467842Y-52376263D01*
X38397568Y-52386367D01*
X38375868Y-52381254D01*
X38274325Y-52347606D01*
X38274318Y-52347605D01*
X38170516Y-52337000D01*
X37974000Y-52337000D01*
X37974000Y-55103000D01*
X38170517Y-55103000D01*
X38170516Y-55102999D01*
X38274318Y-55092394D01*
X38274330Y-55092392D01*
X38375867Y-55058746D01*
X38446821Y-55056305D01*
X38507832Y-55092613D01*
X38539527Y-55156142D01*
X38541500Y-55178350D01*
X38541500Y-61117625D01*
X38521498Y-61185746D01*
X38467842Y-61232239D01*
X38455132Y-61237230D01*
X38302262Y-61287885D01*
X38151347Y-61380970D01*
X38151341Y-61380975D01*
X38025975Y-61506341D01*
X38025970Y-61506347D01*
X37932885Y-61657262D01*
X37877113Y-61825572D01*
X37877112Y-61825579D01*
X37866500Y-61929446D01*
X37866500Y-62830544D01*
X37877112Y-62934425D01*
X37887302Y-62965176D01*
X37901343Y-63007550D01*
X37902443Y-63010867D01*
X37904883Y-63081822D01*
X37868575Y-63142832D01*
X37805046Y-63174527D01*
X37782838Y-63176500D01*
X36292788Y-63176500D01*
X36224667Y-63156498D01*
X36178174Y-63102842D01*
X36174733Y-63094533D01*
X36153535Y-63037702D01*
X36140889Y-63003796D01*
X36140888Y-63003794D01*
X36140887Y-63003792D01*
X36053261Y-62886738D01*
X35936207Y-62799112D01*
X35936202Y-62799110D01*
X35799204Y-62748011D01*
X35799196Y-62748009D01*
X35738649Y-62741500D01*
X35738638Y-62741500D01*
X32126500Y-62741500D01*
X32058379Y-62721498D01*
X32011886Y-62667842D01*
X32000500Y-62615500D01*
X32000500Y-62369000D01*
X32020502Y-62300879D01*
X32074158Y-62254386D01*
X32126500Y-62243000D01*
X33836000Y-62243000D01*
X33836000Y-61314000D01*
X34344000Y-61314000D01*
X34344000Y-62243000D01*
X36238585Y-62243000D01*
X36238597Y-62242999D01*
X36299093Y-62236494D01*
X36435964Y-62185444D01*
X36435965Y-62185444D01*
X36552904Y-62097904D01*
X36640444Y-61980965D01*
X36640444Y-61980964D01*
X36691494Y-61844093D01*
X36697999Y-61783597D01*
X36698000Y-61783585D01*
X36698000Y-61314000D01*
X34344000Y-61314000D01*
X33836000Y-61314000D01*
X33836000Y-59877000D01*
X34344000Y-59877000D01*
X34344000Y-60806000D01*
X36698000Y-60806000D01*
X36698000Y-60336414D01*
X36697999Y-60336402D01*
X36691494Y-60275906D01*
X36640444Y-60139035D01*
X36640444Y-60139034D01*
X36552904Y-60022095D01*
X36435965Y-59934555D01*
X36299093Y-59883505D01*
X36238597Y-59877000D01*
X34344000Y-59877000D01*
X33836000Y-59877000D01*
X32126500Y-59877000D01*
X32058379Y-59856998D01*
X32011886Y-59803342D01*
X32000500Y-59751000D01*
X32000500Y-53974000D01*
X36562000Y-53974000D01*
X36562000Y-54395516D01*
X36572605Y-54499318D01*
X36572606Y-54499321D01*
X36628342Y-54667525D01*
X36721365Y-54818339D01*
X36721370Y-54818345D01*
X36846654Y-54943629D01*
X36846660Y-54943634D01*
X36997474Y-55036657D01*
X37165678Y-55092393D01*
X37165681Y-55092394D01*
X37269483Y-55102999D01*
X37269483Y-55103000D01*
X37466000Y-55103000D01*
X37466000Y-53974000D01*
X36562000Y-53974000D01*
X32000500Y-53974000D01*
X32000500Y-53466000D01*
X36562000Y-53466000D01*
X37466000Y-53466000D01*
X37466000Y-52337000D01*
X37269483Y-52337000D01*
X37165681Y-52347605D01*
X37165678Y-52347606D01*
X36997474Y-52403342D01*
X36846660Y-52496365D01*
X36846654Y-52496370D01*
X36721370Y-52621654D01*
X36721365Y-52621660D01*
X36628342Y-52772474D01*
X36572606Y-52940678D01*
X36572605Y-52940681D01*
X36562000Y-53044483D01*
X36562000Y-53466000D01*
X32000500Y-53466000D01*
X32000500Y-42034214D01*
X40627456Y-42034214D01*
X40627457Y-42034222D01*
X40668800Y-42195238D01*
X40668803Y-42195245D01*
X40748890Y-42340927D01*
X40773182Y-42369368D01*
X40773209Y-42369397D01*
X41002966Y-42599154D01*
X41002967Y-42599154D01*
X41394705Y-42207416D01*
X40748768Y-41561479D01*
X40748766Y-41561479D01*
X40668802Y-41706940D01*
X40668799Y-41706946D01*
X40627457Y-41867959D01*
X40627456Y-41867966D01*
X40627456Y-42034214D01*
X32000500Y-42034214D01*
X32000500Y-41874000D01*
X32020502Y-41805879D01*
X32074158Y-41759386D01*
X32126500Y-41748000D01*
X33886000Y-41748000D01*
X33886000Y-40819000D01*
X34394000Y-40819000D01*
X34394000Y-41748000D01*
X36288585Y-41748000D01*
X36288597Y-41747999D01*
X36349093Y-41741494D01*
X36485964Y-41690444D01*
X36485965Y-41690444D01*
X36602904Y-41602904D01*
X36690444Y-41485965D01*
X36690444Y-41485964D01*
X36741494Y-41349093D01*
X36747999Y-41288597D01*
X36748000Y-41288585D01*
X36748000Y-40819000D01*
X34394000Y-40819000D01*
X33886000Y-40819000D01*
X33886000Y-39382000D01*
X34394000Y-39382000D01*
X34394000Y-40311000D01*
X36748000Y-40311000D01*
X36748000Y-39841414D01*
X36747999Y-39841402D01*
X36741494Y-39780906D01*
X36690444Y-39644035D01*
X36690444Y-39644034D01*
X36602904Y-39527095D01*
X36485965Y-39439555D01*
X36349093Y-39388505D01*
X36288597Y-39382000D01*
X34394000Y-39382000D01*
X33886000Y-39382000D01*
X32126500Y-39382000D01*
X32058379Y-39361998D01*
X32011886Y-39308342D01*
X32000500Y-39256000D01*
X32000500Y-39009500D01*
X32020502Y-38941379D01*
X32074158Y-38894886D01*
X32126500Y-38883500D01*
X35788632Y-38883500D01*
X35788638Y-38883500D01*
X35788645Y-38883499D01*
X35788649Y-38883499D01*
X35849196Y-38876990D01*
X35849199Y-38876989D01*
X35849201Y-38876989D01*
X35986204Y-38825889D01*
X36103261Y-38738261D01*
X36190889Y-38621204D01*
X36211112Y-38566983D01*
X36224733Y-38530467D01*
X36267280Y-38473631D01*
X36333800Y-38448821D01*
X36342788Y-38448500D01*
X38284340Y-38448500D01*
X38352461Y-38468502D01*
G37*
%TD.AperFunction*%
%TA.AperFunction,Conductor*%
G36*
X81564000Y-63016325D02*
G01*
X81452315Y-62965320D01*
X81345763Y-62950000D01*
X81274237Y-62950000D01*
X81167685Y-62965320D01*
X81056000Y-63016325D01*
X81056000Y-61343674D01*
X81167685Y-61394680D01*
X81274237Y-61410000D01*
X81345763Y-61410000D01*
X81452315Y-61394680D01*
X81564000Y-61343674D01*
X81564000Y-63016325D01*
G37*
%TD.AperFunction*%
%TA.AperFunction,Conductor*%
G36*
X81564000Y-60476325D02*
G01*
X81452315Y-60425320D01*
X81345763Y-60410000D01*
X81274237Y-60410000D01*
X81167685Y-60425320D01*
X81056000Y-60476325D01*
X81056000Y-58803674D01*
X81167685Y-58854680D01*
X81274237Y-58870000D01*
X81345763Y-58870000D01*
X81452315Y-58854680D01*
X81564000Y-58803674D01*
X81564000Y-60476325D01*
G37*
%TD.AperFunction*%
M02*
